<svg width="20" height="20" fill="none" xmlns="http://www.w3.org/2000/svg"><path d="M7.084 15.833h-.417c-3.333 0-5-.833-5-5V6.666c0-3.333 1.667-5 5-5h6.667c3.333 0 5 1.667 5 5v4.167c0 3.333-1.667 5-5 5h-.417a.845.845 0 00-.667.333L11 17.834c-.55.734-1.45.734-2 0l-1.25-1.666c-.133-.184-.441-.334-.666-.334z" stroke="#4542F6" stroke-width="1.5" stroke-miterlimit="10" stroke-linecap="round" stroke-linejoin="round"/><path d="M5.833 6.667h8.333m-8.333 4.167h5" stroke="#4542F6" stroke-width="1.5" stroke-linecap="round" stroke-linejoin="round"/></svg>