<svg width="26" height="26" fill="none" xmlns="http://www.w3.org/2000/svg"><path d="M21.44 16.174a8.206 8.206 0 01-8.234 2.026l-5.102 5.092c-.369.379-1.095.606-1.615.53l-2.361-.325c-.78-.108-1.506-.845-1.625-1.625l-.325-2.361c-.076-.52.173-1.246.53-1.614L7.8 12.805c-.866-2.817-.195-6.012 2.037-8.233 3.196-3.196 8.385-3.196 11.591 0 3.207 3.196 3.207 8.406.011 11.602zM7.464 18.947l2.492 2.492" stroke="#4542F6" stroke-width="1.5" stroke-miterlimit="10" stroke-linecap="round" stroke-linejoin="round"/><path d="M15.708 11.916a1.625 1.625 0 100-3.25 1.625 1.625 0 000 3.25z" stroke="#4542F6" stroke-width="1.5" stroke-linecap="round" stroke-linejoin="round"/></svg>