<svg width="20" height="20" fill="none" xmlns="http://www.w3.org/2000/svg"><path d="M15 15.716h-.633c-.667 0-1.3.259-1.767.725l-1.425 1.409a1.685 1.685 0 01-2.358 0l-1.425-1.41a2.504 2.504 0 00-1.767-.724H5a2.487 2.487 0 01-2.5-2.476V4.15c0-1.367 1.117-2.475 2.5-2.475h10c1.383 0 2.5 1.108 2.5 2.475v9.091c0 1.359-1.117 2.476-2.5 2.476z" stroke="#4542F6" stroke-width="1.5" stroke-miterlimit="10" stroke-linecap="round" stroke-linejoin="round"/><path d="M10.233 12.467a.886.886 0 01-.466 0C8.683 12.092 6.25 10.55 6.25 7.925A2.085 2.085 0 0110 6.667a2.075 2.075 0 011.667-.833c1.15 0 2.083.933 2.083 2.091-.008 2.625-2.433 4.167-3.517 4.542z" stroke="#4542F6" stroke-width="1.5" stroke-linecap="round" stroke-linejoin="round"/></svg>