<svg width="20" height="20" fill="none" xmlns="http://www.w3.org/2000/svg"><path d="M4.55 15.409v-2.434c0-.808.633-1.533 1.533-1.533.809 0 1.534.633 1.534 1.533v2.342c0 1.625-1.35 2.975-2.975 2.975s-2.975-1.359-2.975-2.975v-5.133C1.575 5.5 5.275 1.707 9.958 1.707c4.684 0 8.375 3.792 8.375 8.384v5.133c0 1.625-1.35 2.975-2.975 2.975s-2.975-1.35-2.975-2.975v-2.341c0-.809.634-1.534 1.534-1.534.808 0 1.533.633 1.533 1.534v2.524" stroke="#4542F6" stroke-width="1.5" stroke-linecap="round" stroke-linejoin="round"/></svg>