<svg width="28" height="28" fill="none" xmlns="http://www.w3.org/2000/svg"><path d="M18.888 2.333H9.111c-4.246 0-6.778 2.532-6.778 6.779v9.765c0 4.258 2.532 6.79 6.778 6.79h9.765c4.247 0 6.779-2.532 6.779-6.779V9.113c.011-4.247-2.52-6.779-6.767-6.779zm-.222 12.542h-3.791v3.792a.881.881 0 01-.875.875.881.881 0 01-.875-.875v-3.792H9.333A.881.881 0 018.458 14c0-.478.397-.875.875-.875h3.792V9.334A.88.88 0 0114 8.459c.478 0 .875.396.875.875v3.791h3.791c.479 0 .875.397.875.875a.881.881 0 01-.875.875z" fill="#4542F6"/></svg>