<svg width="28" height="28" fill="none" xmlns="http://www.w3.org/2000/svg"><path d="M19.833 2.333H8.166c-3.22 0-5.833 2.602-5.833 5.81v8.144c0 3.208 2.613 5.81 5.833 5.81h1.75c.315 0 .735.21.934.466l1.75 2.322c.77 1.027 2.03 1.027 2.8 0l1.75-2.322c.221-.291.571-.466.933-.466h1.75c3.22 0 5.833-2.602 5.833-5.81V8.144c0-3.209-2.613-5.81-5.833-5.81zm-4.667 13.709h-7a.881.881 0 01-.875-.875c0-.479.397-.875.875-.875h7a.88.88 0 01.875.875.881.881 0 01-.875.875zm4.667-5.834H8.166a.881.881 0 01-.875-.874c0-.479.397-.875.875-.875h11.667c.478 0 .875.396.875.875a.881.881 0 01-.875.875z" fill="#4542F6"/></svg>