<svg width="28" height="28" fill="none" xmlns="http://www.w3.org/2000/svg"><path d="M9.916 22.167h-.583c-4.667 0-7-1.167-7-7V9.334c0-4.667 2.333-7 7-7h9.333c4.667 0 7 2.333 7 7v5.833c0 4.667-2.333 7-7 7h-.583c-.362 0-.712.175-.933.466l-1.75 2.334c-.77 1.027-2.03 1.027-2.8 0l-1.75-2.333c-.187-.257-.619-.467-.934-.467z" stroke="#1F2638" stroke-width="1.5" stroke-miterlimit="10" stroke-linecap="round" stroke-linejoin="round"/><path d="M8.167 9.334h11.667M8.167 15.166h7" stroke="#1F2638" stroke-width="1.5" stroke-linecap="round" stroke-linejoin="round"/></svg>