<svg width="28" height="28" fill="none" xmlns="http://www.w3.org/2000/svg"><path d="M15.178 3.407l6.884 3.056c1.983.875 1.983 2.322 0 3.197l-6.884 3.056c-.781.35-2.065.35-2.846 0L5.448 9.66c-1.983-.875-1.983-2.322 0-3.197l6.884-3.056c.781-.35 2.065-.35 2.846 0z" stroke="#1F2638" stroke-width="1.5" stroke-linecap="round" stroke-linejoin="round"/><path d="M3.5 12.834c0 .98.735 2.111 1.633 2.508l7.922 3.523a2.32 2.32 0 001.89 0l7.922-3.523c.898-.397 1.633-1.529 1.633-2.508" stroke="#1F2638" stroke-width="1.5" stroke-linecap="round" stroke-linejoin="round"/><path d="M3.5 18.666a2.75 2.75 0 001.633 2.509l7.922 3.523a2.32 2.32 0 001.89 0l7.922-3.523a2.75 2.75 0 001.633-2.509" stroke="#1F2638" stroke-width="1.5" stroke-linecap="round" stroke-linejoin="round"/></svg>