<svg width="28" height="28" fill="none" xmlns="http://www.w3.org/2000/svg"><path d="M22.598 5.705L15.761 2.66c-1.003-.443-2.52-.443-3.523 0L5.401 5.705c-1.726.77-1.983 1.82-1.983 2.38 0 .56.257 1.61 1.983 2.38l6.837 3.045c.502.222 1.132.338 1.762.338.63 0 1.26-.116 1.761-.338l6.837-3.045c1.727-.77 1.983-1.82 1.983-2.38 0-.56-.245-1.61-1.983-2.38z" fill="#4542F6"/><path d="M14 19.88a3.3 3.3 0 01-1.295-.268l-7.863-3.5c-1.202-.537-2.135-1.972-2.135-3.29 0-.478.385-.863.863-.863.479 0 .864.385.864.863 0 .63.525 1.447 1.108 1.703l7.863 3.5c.374.164.805.164 1.179 0l7.863-3.5c.583-.257 1.108-1.062 1.108-1.703 0-.478.385-.863.864-.863.478 0 .863.385.863.863 0 1.307-.933 2.753-2.135 3.29l-7.863 3.5c-.397.175-.84.268-1.284.268z" fill="#4542F6"/><path d="M14 25.667a3.3 3.3 0 01-1.295-.269l-7.863-3.5a3.599 3.599 0 01-2.135-3.29c0-.478.385-.863.863-.863.479 0 .864.385.864.863 0 .735.431 1.4 1.108 1.704l7.863 3.5c.374.163.805.163 1.179 0l7.863-3.5a1.872 1.872 0 001.108-1.704c0-.478.385-.863.864-.863.478 0 .863.385.863.863a3.61 3.61 0 01-2.135 3.29l-7.863 3.5c-.397.175-.84.269-1.284.269z" fill="#4542F6"/></svg>