<svg width="28" height="28" fill="none" xmlns="http://www.w3.org/2000/svg"><path d="M17.325 4.608v4.434h-1.75V4.608c0-.315-.28-.466-.466-.466a.468.468 0 00-.175.035L5.682 7.665a1.567 1.567 0 00-1.015 1.482v.781a4.358 4.358 0 00-1.75 3.5V9.147c0-1.389.852-2.625 2.147-3.115l9.263-3.5a2.29 2.29 0 01.782-.14c1.166 0 2.216.945 2.216 2.216zm7.759 12.309v1.166a.582.582 0 01-.572.584h-1.704c-.618 0-1.178-.455-1.224-1.062-.035-.361.105-.7.338-.933a1.11 1.11 0 01.816-.338H24.5a.585.585 0 01.584.583z" fill="#4542F6"/><path d="M22.727 15.108h1.19a1.17 1.17 0 001.167-1.167v-.513a4.397 4.397 0 00-4.387-4.387H7.304c-.992 0-1.902.327-2.637.887a4.358 4.358 0 00-1.75 3.5v7.852a4.397 4.397 0 004.387 4.386h13.393a4.397 4.397 0 004.387-4.386v-.222a1.17 1.17 0 00-1.167-1.166h-1.015c-1.12 0-2.193-.689-2.485-1.774a2.33 2.33 0 01.63-2.31 2.325 2.325 0 011.68-.7zm-6.393-.233H8.167A.881.881 0 017.292 14c0-.479.397-.875.875-.875h8.167c.478 0 .875.396.875.875a.881.881 0 01-.875.875z" fill="#4542F6"/></svg>