<svg width="28" height="28" fill="none" xmlns="http://www.w3.org/2000/svg"><path d="M21.047 15.809a2.343 2.343 0 00-.7 1.901c.105 1.26 1.26 2.182 2.52 2.182h2.217v1.388a4.397 4.397 0 01-4.387 4.387H7.304a4.397 4.397 0 01-4.387-4.387v-7.85a4.397 4.397 0 014.387-4.387h13.393a4.397 4.397 0 014.387 4.387v1.68h-2.357c-.653 0-1.248.256-1.68.7z" stroke="#1F2638" stroke-width="1.5" stroke-linecap="round" stroke-linejoin="round"/><path d="M2.917 14.479V9.146c0-1.388.852-2.625 2.147-3.115l9.263-3.5c1.447-.548 2.998.525 2.998 2.077v4.433m8.994 7.257v2.404c0 .641-.513 1.166-1.167 1.19h-2.286c-1.26 0-2.415-.922-2.52-2.182-.07-.735.21-1.423.7-1.902a2.325 2.325 0 011.68-.7h2.426a1.198 1.198 0 011.167 1.19zM8.167 14h8.167" stroke="#1F2638" stroke-width="1.5" stroke-linecap="round" stroke-linejoin="round"/></svg>