<svg width="28" height="28" fill="none" xmlns="http://www.w3.org/2000/svg"><path d="M3.5 10.628v6.732c0 2.473 0 2.473 2.333 4.048l6.417 3.71c.968.56 2.543.56 3.5 0l6.417-3.71c2.333-1.575 2.333-1.575 2.333-4.037v-6.743c0-2.462 0-2.462-2.333-4.037l-6.417-3.71c-.957-.56-2.532-.56-3.5 0l-6.417 3.71C3.5 8.166 3.5 8.166 3.5 10.628z" stroke="#1F2638" stroke-width="1.5" stroke-linecap="round" stroke-linejoin="round"/><path d="M14 17.5a3.5 3.5 0 100-7 3.5 3.5 0 000 7z" stroke="#1F2638" stroke-width="1.5" stroke-linecap="round" stroke-linejoin="round"/></svg>