<svg width="31" height="24" fill="none" xmlns="http://www.w3.org/2000/svg"><g clip-path="url(#clip0_107_699)" fill="#1F2638"><path d="M19.981 1c-6.126 0-11 4.943-11 11 0 6.127 4.944 11 11 11 6.057 0 11-4.943 11-11s-4.943-11-11-11zm0 15.108c-2.227 0-4.107-1.88-4.107-4.108 0-2.228 1.88-4.108 4.107-4.108 2.228 0 4.108 1.88 4.108 4.108-.07 2.228-1.88 4.108-4.108 4.108zM8.911 4.203v16.012H5.013L0 4.203h8.911z"/></g><defs><clipPath id="clip0_107_699"><path fill="#fff" transform="translate(0 1)" d="M0 0h30.983v22H0z"/></clipPath></defs></svg>