<svg width="50" height="24" fill="none" xmlns="http://www.w3.org/2000/svg"><path d="M18.91 22.36l-.25-.061c-.25-.06-.436-.06-.436-.243s.187-.304.498-.304c.312 0 .686.122.81.243l.25-.425c-.25-.183-.623-.243-1.06-.243-.685 0-1.06.303-1.06.79 0 .425.312.668.873.729l.25.06c.311.061.436.122.436.243 0 .183-.187.304-.623.304a1.64 1.64 0 01-.873-.243l-.25.425c.312.244.686.304 1.123.304.748 0 1.184-.364 1.184-.85.062-.426-.312-.608-.873-.73zm2.805 1.093c-.312 0-.374-.182-.374-.425v-1.154h.935v-.486h-.935v-.79h-.561v.79h-.561v.486h.56v1.154c0 .608.25.911.936.911.25 0 .56-.06.686-.182l-.188-.486c-.187.122-.373.182-.498.182zm-5.361-1.762c-.187-.243-.437-.364-.81-.364-.749 0-1.31.546-1.31 1.336S14.795 24 15.544 24c.373 0 .623-.121.81-.364v.303h.56v-2.552h-.56v.304zm-.748 1.762c-.499 0-.81-.364-.81-.79 0-.425.311-.79.81-.79.498 0 .81.365.81.79 0 .426-.312.79-.81.79zm-2.868-2.126c-.312 0-.686.121-.935.425-.187-.304-.437-.425-.873-.425-.25 0-.56.06-.748.364v-.304h-.56v2.552h.56v-1.458c0-.425.25-.668.623-.668.375 0 .562.243.562.668v1.398h.56V22.48c0-.425.25-.668.624-.668s.56.243.56.668v1.398h.562v-1.58c.062-.608-.312-.972-.935-.972zm21.631.363v-.303h-.561v2.552h.56v-1.458c0-.426.188-.669.562-.669.124 0 .249 0 .374.061l.187-.547c-.125-.06-.312-.06-.437-.06-.374.06-.56.182-.685.425zm-10.348-.363c-.748 0-1.31.546-1.31 1.336S23.274 24 24.084 24a1.72 1.72 0 001.06-.364l-.25-.426a1.218 1.218 0 01-.747.243c-.374 0-.686-.182-.81-.607h1.932v-.183c0-.85-.499-1.336-1.247-1.336zm-.686 1.093c.063-.364.312-.607.686-.607.374 0 .623.243.686.607h-1.372zm9.101-.729c-.187-.243-.437-.364-.81-.364-.749 0-1.31.546-1.31 1.336S30.877 24 31.626 24c.373 0 .623-.121.81-.364v.303h.56v-2.552h-.56v.304zm-.748 1.762c-.499 0-.81-.364-.81-.79 0-.425.311-.79.81-.79.498 0 .81.365.81.79 0 .426-.312.79-.81.79zm6.047-1.762c-.187-.243-.437-.364-.81-.364-.749 0-1.31.546-1.31 1.336S36.176 24 36.925 24c.373 0 .623-.122.81-.364v.303h.56v-3.584h-.56v1.336zm-.748 1.762c-.5 0-.81-.364-.81-.79 0-.425.31-.79.81-.79.498 0 .81.365.81.79 0 .426-.312.79-.81.79zm-7.917-1.64c.249 0 .498.06.685.243l.25-.425c-.312-.244-.561-.304-.935-.304-.873 0-1.372.546-1.372 1.336S28.26 24 29.07 24c.374 0 .685-.06.935-.304l-.25-.425c-.187.121-.436.243-.685.243-.437 0-.81-.304-.81-.79 0-.486.373-.911.81-.911zm-2.618-.123v-.303h-.561v2.552h.56v-1.458c0-.426.188-.669.562-.669.124 0 .249 0 .374.061l.187-.547c-.125-.06-.312-.06-.437-.06-.374.06-.56.182-.685.425zM20.156 9.54c0 3.037 1.496 5.771 3.74 7.533 2.307-1.762 3.74-4.435 3.74-7.534s-1.496-5.772-3.74-7.534c-2.244 1.762-3.74 4.496-3.74 7.534z" fill="#1F2638"/><path d="M28.633 9.54c0 3.159-1.433 6.075-3.927 8.02a9.954 9.954 0 005.299 1.518c5.423 0 9.848-4.253 9.848-9.539S35.49 0 30.004 0c-1.932 0-3.802.547-5.298 1.519 2.494 2.005 3.927 4.921 3.927 8.02zM17.85 19.078c1.932 0 3.802-.546 5.298-1.518-2.493-2.006-3.927-4.922-3.927-8.02 0-3.16 1.434-6.077 3.927-8.021A9.953 9.953 0 0017.85 0C12.426 0 8 4.253 8 9.54c-.062 5.285 4.364 9.538 9.85 9.538z" fill="#1F2638"/></svg>