<svg width="50" height="24" fill="none" xmlns="http://www.w3.org/2000/svg"><path d="M27.739 6.458l-3.117 6.684h-.312V5h-4.488v13.792h3.803c.997 0 1.932-.546 2.306-1.458l3.117-6.683h.312v8.141h4.488V5h-3.803a2.52 2.52 0 00-2.306 1.458zm-16.769.365L9.1 13.142h-.31l-1.87-6.32A2.516 2.516 0 004.487 5H0v13.732h4.488V10.65H4.8l2.556 8.141h3.179l2.555-8.141h.312v8.08h4.488V5h-4.488c-1.122 0-2.12.73-2.431 1.823zm24.81 11.97h4.426v-4.375h4.8c2.057 0 3.864-1.276 4.488-3.16H35.718v7.535h.062zM45.006 5h-9.911c.623 3.22 3.428 5.65 6.919 5.65h7.667c.062-.303.062-.607.062-.91C49.806 7.126 47.624 5 45.006 5z" fill="#1F2638"/></svg>