<svg width="49" height="24" fill="none" xmlns="http://www.w3.org/2000/svg"><g clip-path="url(#clip0_107_693)" fill="#1F2638"><path d="M19.811 22.271c-.093-.256-.262-.43-.385-.658-.297-.39-.646-.728-.996-1.066-.122-.041-.175-.158-.291-.204-.076-.1-.198-.152-.297-.227a5.904 5.904 0 00-.636-.408c-.42-.268-.938-.437-1.45-.612a17.162 17.162 0 00-1.743-.315c-.6-.087-1.2-.169-1.655-.408-.262-.075-.454-.221-.681-.338-.21-.14-.437-.256-.612-.43-.216-.129-.35-.345-.519-.52-.058-.116-.157-.186-.204-.314-.058-.023-.075-.093-.11-.134-.041-.047-.041-.14-.111-.157a3.4 3.4 0 000 .769c.03.105.04.233.07.338.017.093.105.244.07.314-1.818-.093-3.147-.67-4.3-1.427-.571-.379-1.06-.84-1.515-1.335-.199-.273-.414-.536-.589-.839-.18-.297-.332-.635-.495-.95-.268-.681-.519-1.38-.612-2.237-.122-.798-.093-1.818.087-2.558.064-.408.198-.752.315-1.107.076-.163.157-.326.227-.495.1-.14.152-.332.274-.455.332-.623.828-1.09 1.334-1.538a5.623 5.623 0 011.923-.927c.723-.163 1.708-.192 2.488-.023 1.585.326 2.78 1.037 3.782 1.946 1.014.892 1.795 2.022 2.33 3.397.554 1.306.747 3.34.251 4.82a31.242 31.242 0 00-.611-.339c-.245-.07-.484-.151-.77-.18-.343-.006-.681 0-.903.11.449-.046.81.076 1.09.18.163.065.256.106.384.182.251.145.472.28.659.477.53.466.909 1.084 1.09 1.9 0 .023.029.017.023-.023.023-.006.035-.024.046-.047.03-.035.065-.07.094-.11.058-.07.116-.14.157-.228.122-.146.221-.309.315-.478.215-.314.378-.676.565-1.02.32-.734.583-1.526.746-2.423.326-1.993-.065-3.881-.746-5.274-.7-1.404-1.678-2.529-2.943-3.373-1.276-.84-2.768-1.457-4.819-1.515-.011-.041-.029.005-.07 0-1.083-.035-1.957.116-2.826.337-.402.135-.821.251-1.177.432-.407.134-.734.355-1.107.518-.134.128-.338.193-.477.315-.181.087-.315.227-.496.315-.291.256-.6.483-.885.745-.28.257-.525.548-.793.816-.04.093-.11.157-.18.227a.76.76 0 01-.181.228c-.03.105-.123.145-.157.25-.076.058-.094.175-.181.227-.076.187-.21.32-.297.496-.105.169-.187.355-.292.518-.163.38-.338.746-.472 1.154-.14.396-.256.816-.338 1.27-.087.426-.169.98-.157 1.428-.058.163-.012.466 0 .658 0 .035-.023.047-.023.07 0 .216.058.478.07.612a5.8 5.8 0 00.274 1.358c.087.448.273.798.407 1.2.204.338.344.74.589 1.043.18.355.437.635.682.927.262.28.524.565.839.792.577.501 1.253.903 1.993 1.247 1.38.67 3.443 1.107 5.296.996.472-.064.95-.122 1.381-.227.396-.146.857-.233 1.335-.291 1.09-.07 2.033.029 2.872.274a6.88 6.88 0 012.22 1.02c.338.197.618.454.903.699.292.25.525.559.793.839.035.105.105.18.157.274.07.075.035.25.204.227.105-.105-.017-.257-.023-.385-.105-.11-.128-.256-.21-.35z"/><path d="M15.581 16.072c-.023 0-.029.018-.046.023-.041.088-.024.228 0 .315.122.25.163.577.43.682.13-.041.117-.227.112-.408-.059-.222-.14-.42-.274-.565-.094-.035-.158-.094-.222-.047zm-1.585.635c0-.012-.017-.023-.023 0-.221-.029-.297.093-.408.18-.192.508.117 1.003.659.997.215-.052.35-.192.384-.431-.029-.425-.21-.7-.612-.746zm13.064-1.614c.088.367.274.63.484.874.21.245.454.449.752.6.28.175.582.32.932.42.169.058.332.128.542.151.146.082.32.122.332.332-.006.25-.175.344-.39.39-.216-.046-.484-.04-.665-.122-.454-.052-.821-.198-1.206-.332a5.426 5.426 0 01-1.864-1.206c-.105-.175-.25-.315-.362-.484-.11-.169-.186-.373-.303-.542-.897-.116-1.509-.524-2.045-.996-.495-.565-.891-1.241-1.055-2.139-.192-.862-.134-1.94.094-2.773.495-1.614 1.532-2.686 3.49-2.832.542.018 1.014.082 1.445.245.437.157.85.448 1.177.751.03.024.04.03.058.059.07.099.24.239.332.361.018.023.012.064.03.093.035.053.087.076.122.123.017.029.012.064.03.087.022.035.052.087.087.152.011.023.052.04.058.058.052.099.075.221.122.332.047.116.11.216.152.332.116.344.192.752.239 1.171.116 1.212-.123 2.296-.572 3.1a3.33 3.33 0 01-.844 1.055c-.315.332-.746.53-1.172.74zm-1.445-7.587c-.262.018-.42.14-.635.21-.14.128-.314.227-.42.39-.174.1-.22.32-.36.45a5.614 5.614 0 00-.304.995c-.07.373-.116.793-.122 1.207-.006 1.037.216 2.068.63 2.68.244.297.541.542.902.723.21.017.373.087.6.093.129-.047.339 0 .42-.093.187.011.227-.111.39-.123a.94.94 0 01.304-.21c.11-.122.215-.244.332-.36.058-.088.093-.21.18-.275.525-1.002.583-2.837.24-4.003a3.557 3.557 0 00-.513-1.054 2.965 2.965 0 00-.781-.572c-.24-.052-.466-.116-.781-.087-.018 0-.035.006-.03.03h-.052zm6.358-.845c.471.018 1.025-.04 1.444.03.094.145.059.32.059.483.035 2.208 0 4.58 0 6.835 0 .18.006.367 0 .542-.006.151.035.315-.059.454-.21.053-.512.03-.78.03-.286 0-.566.04-.752-.059a215.023 215.023 0 010-8.221.128.128 0 01.087-.094zm3.612 0h1.416c.128.175.169.437.21.694.425 1.62.845 3.245 1.235 4.906.093.012.064-.1.093-.152.041-.04.018-.14.059-.18.017-.134.099-.204.093-.361.105-.204.14-.484.239-.694.122-.49.285-.944.425-1.416.134-.49.315-.932.42-1.445.198-.414.244-.979.483-1.352h.6c.216.408.298.95.484 1.387.122.49.291.932.42 1.416.297.938.606 1.865.874 2.832.122-.18.122-.484.21-.694.052-.238.098-.483.18-.693.233-.956.454-1.917.722-2.832.1-.478.199-.967.362-1.387a4.87 4.87 0 011.235 0c.03.356-.134.74-.239 1.055-.058.385-.198.682-.274 1.055-.215.682-.378 1.404-.6 2.08-.169.722-.396 1.387-.57 2.11-.117.331-.199.698-.304 1.054-.116.326-.157.728-.332.996h-.845c-.215-.378-.291-.891-.483-1.293-.42-1.329-.886-2.605-1.294-3.945-.14.146-.14.443-.239.63a7.37 7.37 0 01-.21.664c-.116.46-.291.85-.39 1.322-.17.414-.291.874-.42 1.329-.175.396-.239.903-.454 1.264-.222.07-.571.012-.845.03-.21-.24-.233-.67-.361-.997-.1-.338-.17-.71-.297-1.026-.164-.734-.408-1.38-.572-2.109-.215-.676-.402-1.38-.6-2.08-.11-.332-.192-.688-.303-1.026-.052-.36-.297-.687-.21-1.083.012-.03.047-.047.082-.059zm11.893 0c.472.018 1.02-.04 1.445.03.105.314.058.652.058.99v6.322c0 .344.04.676-.058.997a8.08 8.08 0 01-1.206.029c-.117-.006-.257.029-.332-.059-.105-.314-.059-.646-.059-.996V7.716c0-.379-.035-.746.059-.996a.196.196 0 01.093-.059z"/></g><defs><clipPath id="clip0_107_693"><path fill="#fff" transform="translate(0 2)" d="M0 0h48.992v21H0z"/></clipPath></defs></svg>