<svg width="45" height="24" fill="none" xmlns="http://www.w3.org/2000/svg"><path d="M17.89 5.243L15.647 18.55h3.616l2.244-13.306h-3.615zm10.846 5.347c-1.246-.608-2.056-1.033-2.056-1.64 0-.547.623-1.155 2.056-1.155 1.185 0 2.058.243 2.68.486l.313.122.498-2.856A9.714 9.714 0 0028.986 5c-3.553 0-6.047 1.823-6.047 4.435 0 1.945 1.808 2.978 3.18 3.646 1.37.668 1.87 1.094 1.87 1.64 0 .912-1.123 1.277-2.182 1.277-1.434 0-2.182-.183-3.366-.73l-.499-.243-.499 2.978c.873.364 2.37.668 3.99.729 3.802 0 6.233-1.762 6.296-4.557.062-1.459-.873-2.674-2.992-3.585zm12.779-5.347H38.71c-.872 0-1.496.243-1.87 1.094l-5.36 12.212h3.802s.623-1.64.748-2.005h4.613c.124.486.436 2.005.436 2.005h3.304L41.515 5.243zm-4.425 8.628c.311-.79 1.433-3.706 1.433-3.706s.312-.79.499-1.276l.25 1.154s.685 3.22.81 3.889c-.561-.061-2.307-.061-2.992-.061zM12.654 5.243l-3.553 9.114-.374-1.823L7.48 6.398c-.187-.851-.872-1.094-1.62-1.094H.061L0 5.547c1.434.365 2.68.85 3.802 1.458l3.18 11.605h3.802l5.672-13.306h-3.802v-.06z" fill="#1F2638"/></svg>