<svg width="457" height="262" fill="none" xmlns="http://www.w3.org/2000/svg"><ellipse cx="326.5" cy="131" rx="130.5" ry="131" transform="rotate(180 326.5 131)" fill="#F0F4F8"/><circle cx="65" cy="169" r="65" transform="rotate(180 65 169)" fill="#CFD8E2"/><circle cx="211.5" cy="195.5" r="9.5" transform="rotate(180 211.5 195.5)" fill="#CFD8E2"/><circle cx="86" cy="88" r="36" transform="rotate(180 86 88)" fill="#F0F4F8"/><path d="M188.702 128.146a8.084 8.084 0 01-8.084 8.085 8.085 8.085 0 00-8.085 8.085v2.53c0 5.523-4.477 10-10 10h-10.007c-5.523 0-10-4.477-10-10v-.615c0-5.523-4.477-10-10-10H95c-5.523 0-10-4.477-10-10v-6.599a10 10 0 011.908-5.875l43.917-60.479a9.998 9.998 0 018.091-4.124h7.503c8.103 0 12.842 9.132 8.176 15.758l-24.845 35.28c-3.518 4.997.056 11.885 6.167 11.885a7.542 7.542 0 007.542-7.542v-1.612a9.154 9.154 0 019.154-9.154h10.766a9.154 9.154 0 019.154 9.154v1.069a8.085 8.085 0 008.085 8.085 8.084 8.084 0 018.084 8.085v7.984zM242.994 159c-9.329 0-17.621-2.205-24.876-6.615-7.256-4.411-12.957-10.821-17.103-19.231-4.042-8.513-6.063-18.564-6.063-30.154s2.021-21.59 6.063-30c4.146-8.513 9.847-14.974 17.103-19.385 7.255-4.41 15.547-6.615 24.876-6.615 9.225 0 17.465 2.205 24.72 6.615 7.256 4.41 12.905 10.872 16.947 19.385 4.146 8.41 6.219 18.41 6.219 30s-2.073 21.641-6.219 30.154c-4.042 8.41-9.691 14.82-16.947 19.231-7.255 4.41-15.495 6.615-24.72 6.615zm0-24.923c5.182 0 9.277-2.462 12.282-7.385 3.11-5.025 4.665-12.923 4.665-23.692 0-10.77-1.555-18.615-4.665-23.538-3.005-5.026-7.1-7.539-12.282-7.539-5.286 0-9.484 2.513-12.594 7.538-3.006 4.924-4.509 12.77-4.509 23.539 0 10.769 1.503 18.667 4.509 23.692 3.11 4.923 7.308 7.385 12.594 7.385zM404 128.146a8.085 8.085 0 01-8.085 8.085 8.084 8.084 0 00-8.084 8.085v2.53c0 5.523-4.478 10-10 10h-10.007c-5.523 0-10-4.477-10-10v-.615c0-5.523-4.477-10-10-10h-37.526c-5.523 0-10-4.477-10-10v-6.599a10 10 0 011.908-5.875l43.916-60.479a10.001 10.001 0 018.092-4.124h7.503c8.103 0 12.841 9.132 8.176 15.758l-24.845 35.28c-3.519 4.997.055 11.885 6.166 11.885a7.543 7.543 0 007.543-7.542v-1.612a9.153 9.153 0 019.153-9.154h10.767a9.154 9.154 0 019.154 9.154v1.069a8.084 8.084 0 008.084 8.085 8.085 8.085 0 018.085 8.085v7.984z" fill="#93A6BB"/></svg>