<svg width="422" height="400" fill="none" xmlns="http://www.w3.org/2000/svg"><path d="M154.165 42.437l4.263 1.035 12.45-10.718 2.061-8.517s6.691 1.186 3.219 12.15c-3.473 10.963-1.948 8.328-1.948 8.328s13.993 3.444 14.859 4.94c.631 1.092-2.353 15.085-4.028 22.67-.847 3.812-4.027 6.785-7.773 6.823-.536 0-1.054-.038-1.553-.16-3.491-.847-20.646-7.999-20.646-7.999L147.7 69.21l6.475-26.763-.01-.01zm-11.65-5.289l-4.432 29.813 7.303 1.77 6.916-28.6-9.787-2.983zm63.682-19.922l2.786-.95 3.19-10.54-1.892-5.562s4.216-1.731 6.193 5.722c1.976 7.453 1.891 5.411 1.891 5.411s9.157-3.077 10.182-2.54c.753.385 4.094 9.381 5.873 14.275.894 2.465.16 5.289-1.948 6.653a4.221 4.221 0 01-.941.47c-2.278.782-14.559 2.9-14.559 2.9l-4.808 1.637-5.957-17.466-.01-.01zm-8.498 1.195l8.206 18.464 4.771-1.628-6.361-18.661-6.616 1.825zm98.114 332.617l-15.433 44.267h7.717l27.008-44.267h-19.292zm88.534 0l15.434 44.267h-7.717l-27.008-44.267h19.291z" fill="#E0E4E9"/><path d="M421.058 228.842H297.742v123.316h123.316V228.842z" fill="#E0E4E9"/><path d="M382.419 228.842H259.103v123.316h123.316V228.842z" fill="#fff"/><path d="M373.949 344.225H267.581V237.857h106.368v106.368zm-105.427-.941h104.486V238.798H268.522v104.486z" fill="#E0E4E9"/><path d="M268.664 271.359c17.438.508 34.96.056 52.407.056 17.466 0 34.951.264 52.408-.028.32 0 .32-.489 0-.489-17.457-.292-34.942-.038-52.408-.028-17.447 0-34.969-.452-52.407.056-.282 0-.282.433 0 .442v-.009zm55.099-15.735a3.005 3.005 0 01-3.002 3.002 3.005 3.005 0 01-3.002-3.002 3.005 3.005 0 013.002-3.002 3.005 3.005 0 013.002 3.002zm-43.233 48.164a3.004 3.004 0 01-3.002 3.002 3.005 3.005 0 01-3.002-3.002 3.003 3.003 0 016.004 0zm96.637-106.961l12.893 32.965-8.018-.037-6.418-20.261 1.543-12.667z" fill="#E0E4E9"/><path d="M333.164 166.365l-4.433 63.164 45.736.96 5.147-64.124h-46.45z" fill="#E0E4E9"/><path d="M337.738 171.447l-3.689 52.577 34 1.599 4.753-54.487-35.064.311z" fill="#fff"/><path d="M345.2 178.881l-2.758 36.965h18.756l3.303-36.965H345.2z" fill="#E0E4E9"/><path d="M100.535 9.594H19.773v84.187h80.762V9.594z" fill="#E9EDF1"/><path d="M95.067 9.594H14.306v84.187h80.761V9.594z" fill="#E0E4E9"/><path d="M84.216 20.915H25.165V82.47h59.051V20.915z" fill="#fff"/><path d="M25.166 82.874s-.527.688-1.478 1.676c-.95.988-2.277 2.333-3.764 3.792a196.814 196.814 0 01-3.85 3.698c-.997.932-1.646 1.487-1.684 1.44-.047-.047.518-.677 1.468-1.666a191.75 191.75 0 013.774-3.801 174.207 174.207 0 013.858-3.708c.998-.932 1.638-1.487 1.685-1.44l-.01.01zm59.041-.15s.688.527 1.676 1.477c.988.95 2.333 2.278 3.792 3.765a196.814 196.814 0 013.698 3.848c.932.998 1.487 1.647 1.44 1.685-.047.047-.677-.518-1.666-1.468a191.75 191.75 0 01-3.801-3.774 173.96 173.96 0 01-3.708-3.858c-.932-.998-1.487-1.638-1.44-1.685l.01.01zm-.16-61.649s.528-.687 1.478-1.675 2.277-2.334 3.764-3.792a196.768 196.768 0 013.85-3.699c.997-.931 1.646-1.487 1.684-1.44.047.048-.518.678-1.468 1.666-.95.988-2.278 2.334-3.774 3.802a174.44 174.44 0 01-3.858 3.708c-.998.931-1.638 1.487-1.685 1.44l.01-.01zm-59.051.151s-.687-.527-1.675-1.478c-.988-.95-2.334-2.277-3.792-3.764a197.054 197.054 0 01-3.699-3.849c-.931-.998-1.487-1.647-1.44-1.684.047-.048.678.517 1.666 1.467.988.951 2.334 2.278 3.802 3.774a174.217 174.217 0 013.708 3.858c.931.998 1.487 1.638 1.44 1.685l-.01-.01z" fill="#E0E4E9"/><path d="M84.047 82.46s0-.103-.01-.3c0-.208 0-.49-.009-.857 0-.762-.009-1.873-.018-3.322-.01-2.908-.029-7.152-.047-12.544-.029-10.775-.057-26.143-.094-44.54l.197.197c-17.184 0-37.379.019-58.882.028l.226-.226-.028 61.555-.188-.188c17.654.037 32.353.075 42.648.094 5.148.019 9.195.038 11.97.047 1.374.01 2.438.019 3.163.019.348 0 .62 0 .818.01.188 0 .283.009.283.009s-.085 0-.264.01c-.188 0-.452 0-.8.008-.724 0-1.769.01-3.124.02-2.767.009-6.795.027-11.933.046-10.323.02-25.07.057-42.77.095h-.189v-.189c0-17.823-.019-38.96-.028-61.554v-.226h.226l58.882.028h.197v.198c-.037 18.444-.075 33.85-.094 44.662-.019 5.374-.038 9.599-.047 12.497-.01 1.43-.019 2.522-.019 3.285 0 .357 0 .64-.01.837 0 .188-.009.273-.009.273l-.047.028z" fill="#E0E4E9"/><path d="M40.75 46.625s-1.261 15.236 15.235 15.236c0-8.131-6.71-14.549-15.235-15.236z" fill="#E0E4E9"/><path d="M70.949 46.635S55.713 45.373 55.713 61.87c8.13 0 14.549-6.71 15.236-15.235z" fill="#E0E4E9"/><path d="M55.251 38.296s-12.45 11.18.678 23.574c6.107-6.475 5.59-16.62-.678-23.574z" fill="#E0E4E9"/><path d="M74.713 202.229c-13.43-20.534-11.472-49.876 4.564-68.443 4.978-5.76 11.933-10.776 19.517-10.126 7.774.668 14.032 7.331 16.394 14.756 2.362 7.434 1.543 15.48.16 23.15-1.948 10.746-5.204 21.738-12.648 29.718-7.453 7.98-18.398 16.177-27.987 10.945zm7.424 98.839c-5.053-11.801-1.393-26.736 8.554-34.847 3.087-2.523 7.124-4.471 10.973-3.445 3.943 1.045 6.559 5.044 7.105 9.091.546 4.046-.612 8.112-2.014 11.942-1.976 5.354-4.649 10.728-9.213 14.163-4.564 3.435-10.944 6.662-15.405 3.105m-32.381-7.058c3.689-18.209-5.9-38.291-22.388-46.864-5.12-2.663-11.415-4.235-16.562-1.656-5.28 2.644-7.811 9.081-7.397 14.972.414 5.891 3.247 11.321 6.38 16.327 4.376 7.011 9.75 13.834 17.222 17.353 7.481 3.529 17.475 6.221 22.745-.141m2.324-49.218c6.427-20.74-4.47-45.895-22.632-57.799-5.637-3.699-12.78-6.268-19.076-3.868C3.926 185.581.218 192.78.012 199.678c-.208 6.898 2.455 13.551 5.505 19.744 4.272 8.667 9.711 17.23 18.002 22.209 8.281 4.978 21.691 9.947 28.57 3.161" fill="#D33C3C"/><path d="M64.99 346.182s-.103-.348-.206-1.007c-.113-.752-.254-1.712-.433-2.889-.085-.64-.188-1.336-.292-2.089-.15-.762-.31-1.59-.48-2.465-.339-1.77-.687-3.793-1.27-5.985a766.869 766.869 0 00-.838-3.454c-.348-1.186-.715-2.428-1.082-3.698-.696-2.579-1.713-5.242-2.672-8.075-2.127-5.599-4.772-11.641-8.009-17.758-3.303-6.079-6.879-11.622-10.37-16.487-1.835-2.371-3.492-4.686-5.251-6.691-.857-1.016-1.685-2.004-2.485-2.945-.837-.904-1.647-1.779-2.418-2.607-1.506-1.694-3.002-3.105-4.292-4.367l-1.788-1.759c-.574-.508-1.1-.97-1.58-1.402-.885-.8-1.61-1.45-2.174-1.958-.49-.452-.744-.706-.725-.734.019-.028.301.179.837.593.593.48 1.356 1.092 2.287 1.835.5.414 1.045.856 1.638 1.346a523.7 523.7 0 011.854 1.712c1.326 1.233 2.851 2.617 4.404 4.292.79.828 1.618 1.684 2.475 2.588a681.16 681.16 0 012.54 2.936c1.798 1.995 3.483 4.31 5.346 6.681 3.548 4.875 7.17 10.437 10.493 16.553 3.265 6.146 5.9 12.244 7.99 17.89.94 2.861 1.947 5.552 2.606 8.149.358 1.29.706 2.532 1.044 3.736.273 1.214.537 2.372.781 3.492.546 2.211.857 4.253 1.149 6.041.14.885.282 1.713.404 2.485.076.762.15 1.468.217 2.108.113 1.195.197 2.155.263 2.917.047.668.066 1.016.038 1.026v-.01z" fill="#1F2638"/><path d="M64.52 349.909s-.018-.141 0-.414c.03-.32.057-.715.086-1.205l.423-4.611c.104-1.007.207-2.117.33-3.322.094-1.214.122-2.55.197-3.971.104-2.851.377-6.089.282-9.684 0-1.797-.018-3.679-.028-5.636-.019-1.958-.207-3.991-.3-6.099-.142-4.215-.716-8.695-1.224-13.41-1.29-9.391-3.303-19.649-6.362-30.16-3.162-10.493-7.067-20.186-11.114-28.769-2.145-4.234-4.103-8.29-6.286-11.913-1.063-1.817-2.014-3.623-3.068-5.28-1.063-1.647-2.08-3.228-3.049-4.733-1.873-3.068-3.868-5.637-5.514-7.962-.838-1.157-1.59-2.249-2.334-3.218-.763-.95-1.459-1.816-2.09-2.607-1.213-1.534-2.164-2.748-2.87-3.632a88.876 88.876 0 00-.734-.96c-.16-.216-.235-.339-.225-.348.009-.01.112.084.291.291.217.245.48.537.8.904.734.866 1.732 2.042 3.002 3.529.65.781 1.374 1.637 2.155 2.569.762.96 1.534 2.042 2.4 3.181 1.684 2.305 3.717 4.856 5.637 7.914.988 1.506 2.023 3.087 3.105 4.724 1.073 1.647 2.042 3.454 3.124 5.27 2.221 3.614 4.207 7.679 6.38 11.923 4.104 8.602 8.047 18.332 11.228 28.862 3.077 10.559 5.072 20.873 6.324 30.312.489 4.743 1.035 9.232 1.148 13.476.084 2.117.254 4.159.254 6.126l-.028 5.656c.056 3.604-.255 6.851-.414 9.702-.095 1.431-.151 2.757-.274 3.971-.15 1.214-.282 2.315-.404 3.322a609.14 609.14 0 01-.593 4.593c-.066.48-.132.875-.179 1.195-.047.263-.075.405-.094.405l.019.009z" fill="#1F2638"/><path d="M99.472 148.457s-.047.141-.17.386c-.15.291-.348.64-.574 1.082-.555.997-1.327 2.371-2.296 4.093-.49.894-1.082 1.864-1.656 2.965-.555 1.11-1.158 2.324-1.798 3.613-.649 1.299-1.336 2.682-2.07 4.151-.696 1.486-1.365 3.086-2.108 4.752-.715 1.675-1.525 3.406-2.268 5.242l-2.23 5.778c-.386.997-.772 2.014-1.177 3.049-.357 1.044-.715 2.117-1.082 3.19-.724 2.164-1.477 4.385-2.249 6.672a338.666 338.666 0 00-7.82 30.33c-2.202 10.898-3.755 21.39-4.894 30.961-.978 9.58-1.703 18.238-1.9 25.521-.189 3.642-.226 6.936-.236 9.834-.047 2.899-.056 5.393.01 7.425.028 1.986.047 3.548.066 4.696v1.224c0 .273-.02.414-.029.414-.019 0-.037-.141-.056-.414-.019-.33-.047-.725-.085-1.224-.056-1.148-.132-2.71-.235-4.696-.122-2.042-.16-4.535-.16-7.434a188.55 188.55 0 01.103-9.853c.123-7.302.781-15.979 1.713-25.597 1.101-9.598 2.626-20.11 4.837-31.045 2.287-10.907 5.016-21.183 7.905-30.406.781-2.286 1.543-4.507 2.287-6.681.376-1.082.743-2.146 1.1-3.2.405-1.035.81-2.051 1.196-3.049l2.287-5.778c.762-1.844 1.59-3.566 2.334-5.241.762-1.657 1.449-3.257 2.164-4.743.753-1.459 1.468-2.833 2.136-4.132.668-1.279 1.29-2.484 1.864-3.585.592-1.092 1.204-2.052 1.722-2.927 1.035-1.694 1.844-3.039 2.437-4.018.263-.414.48-.753.65-1.035.15-.226.234-.348.244-.339l.038.019zm-4.564 126.007c.047.038-.462.922-1.43 2.503-.98 1.572-2.335 3.887-3.906 6.795-1.59 2.898-3.332 6.437-5.082 10.436-1.713 4.018-3.435 8.507-4.931 13.326-1.477 4.827-2.588 9.504-3.444 13.786-.81 4.291-1.365 8.197-1.685 11.49-.33 3.294-.527 5.967-.602 7.811-.094 1.854-.179 2.87-.235 2.87-.057 0-.094-1.025-.104-2.879-.028-1.854.066-4.546.33-7.858.244-3.313.743-7.246 1.515-11.585a128.42 128.42 0 013.397-13.899 129.729 129.729 0 015.035-13.391c1.806-4.009 3.613-7.538 5.288-10.418 1.656-2.879 3.096-5.157 4.17-6.672 1.053-1.524 1.665-2.352 1.712-2.324l-.028.009z" fill="#1F2638"/><path d="M38.623 336.932h58.976l-7.133 60.237H45.973l-7.35-60.237z" fill="#4542F6"/><path d="M40.778 390.666l5.007 6.503h44.681l5.148-6.296-54.836-.207z" fill="#1F2638"/><path d="M95.303 354.652c0 .244-12.243.442-27.329.442-15.085 0-27.337-.198-27.337-.442 0-.245 12.233-.443 27.337-.443s27.329.198 27.329.443zm0 4.009c0 .244-12.243.442-27.329.442-15.085 0-27.337-.198-27.337-.442 0-.245 12.233-.443 27.337-.443s27.329.198 27.329.443zm-.733 3.886c0 .245-11.811.443-26.379.443-14.567 0-26.378-.198-26.378-.443 0-.244 11.81-.442 26.378-.442s26.378.198 26.378.442zm186.753-234.53l8.3-14.633a39.003 39.003 0 01-5.797-20.496c0-21.616 17.523-39.148 39.148-39.148 21.626 0 39.148 17.522 39.148 39.148 0 21.625-17.522 39.148-39.148 39.148-9.024 0-17.334-3.068-23.959-8.197v.019l-17.692 4.169v-.01z" fill="#fff"/><path d="M281.323 128.017c.847-.207 6.428-1.562 17.683-4.291l-.066.188v-.019l-.584-.734.744.565a40.428 40.428 0 008.027 4.781c3.134 1.374 6.71 2.484 10.662 2.992 1.976.245 4.028.395 6.145.292 1.054-.066 2.136-.094 3.219-.188 1.073-.17 2.164-.339 3.275-.509a39.388 39.388 0 0013.043-5.156 39.345 39.345 0 0011.132-10.427c3.087-4.31 5.43-9.411 6.522-14.963a39.464 39.464 0 00-.471-17.212c-1.468-5.722-4.197-11.302-8.29-15.904l-1.581-1.741c-.518-.583-1.139-1.063-1.704-1.6-.593-.508-1.12-1.082-1.75-1.534l-1.854-1.392c-.602-.49-1.261-.876-1.92-1.27-.658-.396-1.308-.8-1.957-1.196-.687-.33-1.374-.668-2.052-.997-.687-.32-1.355-.697-2.07-.923a39.654 39.654 0 00-17.344-2.682c-5.731.405-11.217 2.042-15.932 4.687a39.544 39.544 0 00-11.801 10.04 39.49 39.49 0 00-6.643 12.555c-1.356 4.328-1.723 8.629-1.732 12.61.104 3.99.809 7.679 1.854 10.916a39.81 39.81 0 003.849 8.394l.038.057-.038.056c-5.364 9.307-7.99 13.852-8.404 14.577.405-.734 2.965-5.308 8.206-14.69v.122a40.081 40.081 0 01-3.924-8.422 38.98 38.98 0 01-1.92-11.001c-.019-4.018.348-8.357 1.704-12.733a39.842 39.842 0 016.672-12.694 39.656 39.656 0 0111.913-10.173c4.762-2.682 10.314-4.348 16.111-4.762a39.891 39.891 0 0117.551 2.7c.734.236 1.402.613 2.099.933.687.338 1.383.668 2.079 1.007.659.404 1.327.8 1.986 1.204.668.395 1.336.8 1.948 1.29l1.882 1.401c.64.452 1.176 1.036 1.779 1.553.574.546 1.195 1.035 1.722 1.619l1.6 1.76c4.14 4.658 6.907 10.314 8.394 16.101a39.973 39.973 0 01.461 17.419c-1.11 5.609-3.491 10.775-6.616 15.132a39.53 39.53 0 01-11.274 10.531 39.595 39.595 0 01-13.193 5.185c-1.12.169-2.221.339-3.313.499-1.091.094-2.183.113-3.246.178-2.136.104-4.216-.056-6.202-.31-3.981-.527-7.585-1.666-10.737-3.068a40.304 40.304 0 01-8.056-4.856l.17-.169v.019l.131.15-.188.038a23440.752 23440.752 0 00-17.739 4.056v.009zm-20.028.169c-2.475 6.154-2.399 18.896 1.713 24.11 2.146 2.72 5.072 4.893 6.597 8.008 2.004 4.084 1.148 9.176-1.365 12.968-2.503 3.792-6.446 6.437-10.596 8.31-4.621 2.079-10.276 3.227-14.586.564-3.294-2.033-5.035-5.844-6.089-9.57-2.955-10.437-1.882-21.682 1.186-32.081 3.068-10.399 8.055-20.12 13.005-29.756" fill="#1F2638"/><path d="M275.025 214.603l22.059-13.466s-16.723-32.279-19.273-33.436c-2.551-1.158-36.334-6.155-36.334-6.155-10.286 16.168-23.16 12.187-36.137 1.393-1.158.235-21.578 4.884-26.914 5.581-5.345.696-20.656 25.173-20.656 25.173l17.437 30.49 1.318 31.582s.95 22.463-2.739 34.057l92.422 3.002s-1.393-6.051-2.137-14.596c-.338-3.924-1.411-7.839-.611-12.883 2.55-16.026 11.565-50.751 11.565-50.751v.009z" fill="#4542F6"/><path d="M168.554 178.072c1.383 4.648 13.193 11.537 17.306 8.958 1.308-.818 2.437-2.042 3.952-2.343 1.901-.367 3.699.838 5.543 1.44 4.301 1.421 9.834-.169 12.94 3.134 1.524 1.618 2.503 4.394 4.733 4.329.8-.019 1.534-.452 2.315-.65 2.503-.611 4.922 1.29 7.491 1.468 1.336.094 2.663-.291 3.952-.668 6.145-1.797 12.291-3.604 18.436-5.401 1.336-.396 2.842-.923 3.397-2.203a9.871 9.871 0 01-6.738-.282c-1.214-.499-2.334-1.251-3.614-1.515-3.256-.668-6.22 1.929-9.457 2.691-3.407.8-6.917-.479-10.183-1.731-5.571-2.146-11.142-4.282-16.722-6.428-4.611-1.769-9.336-3.613-13.006-6.916-1.157-1.045-5.533 1.157-6.907.395-1.374-.762-4.526-3.51-4.526-3.51-.292-.207-2.833 2.08-3.944 3.284-1.195 1.299-4.968 5.938-4.968 5.938v.01zm7.961 77.702c4.103-1.741 11.142-4.46 15.518-5.288 3.237-.612 6.559-.96 9.825-.49 1.628.235 3.312.678 4.893.207 1.497-.442 2.645-1.628 4.037-2.315 4-1.967 8.78.49 13.203-.094 1.092-.141 2.221-.517 2.927-1.364.706-.847.781-2.268-.056-2.974-.48-.405-1.148-.508-1.77-.565-2.108-.188-4.225-.056-6.333.076-1.129.075-2.268.141-3.397.216-1.412.094-2.851.179-4.225-.188-1.365-.367-2.56-1.158-3.859-1.732-4.536-1.995-9.74-1.101-14.643-.414-2.446.348-4.959.631-7.368.066-.828-.198-1.666-.489-2.513-.433-1.44.094-2.644 1.148-4.065 1.383-1.421.236-1.506-2.493-2.861-2.776l.697 16.657-.01.028zm89.994-42.319c-.527.282-1.054.621-1.647.706-2.663.367-4.3-4.32-6.851-3.463-.997.329-1.628 1.468-2.672 1.59-1.167.132-2.014-1.054-3.087-1.534-1.91-.847-4.009.678-6.098.838-2.353.188-5.101-1.28-6.86.291-.687.621-1.083 1.638-1.977 1.882-.847.226-1.665-.367-2.503-.611-2.55-.762-4.903 1.703-7.528 2.155-2.983.517-6.559-1.506-8.827.499-.81.705-1.299 1.853-2.334 2.155-.96.272-1.958-.32-2.955-.33-2.296 0-4.404 3.021-6.343 1.788.207 1.092 1.355 1.798 2.456 1.929 1.111.132 2.212-.15 3.322-.282 6.503-.8 13.109 3.435 19.414 1.647 1.732-.489 3.369-1.421 5.167-1.553 3.369-.245 6.418 2.372 9.787 2.24 2.625-.094 5.063-1.854 7.679-1.562 2.691.31 4.63 2.663 7.076 3.82 2.927 1.393 6.353.989 9.571.556l.922-.217c1.431-4.188 2.701-8.413 3.228-12.789-2.804-1.317-6.23-1.223-8.959.235l.019.01zm-7.576 56.322c-1.28 0-2.428.744-3.51 1.421-1.082.687-2.287 1.365-3.567 1.224-2.315-.254-4.385-3.087-6.408-1.948-.556.32-.923.884-1.421 1.289-1.412 1.148-3.661.828-5.007 2.061-.696.64-1.073 1.637-1.929 2.033-1.609.752-3.134-1.111-4.762-1.836-2.541-1.138-5.43.631-8.215.575-1.412-.029-2.908-.518-4.197.065-.697.32-1.224.904-1.854 1.327-2.127 1.421-4.988.763-7.369-.179-2.381-.941-4.865-2.145-7.378-1.646-.696.141-1.486.574-1.477 1.289 0 .273.141.527.282.762 1.497 2.447 4.339 3.708 7.096 4.508 3.021.875 6.211 1.383 8.893 3.021 1.703 1.035 3.501 2.559 5.42 2.042 1.515-.414 2.447-1.995 3.915-2.56 2.07-.8 4.527.649 6.578-.198.687-.282 1.261-.809 1.957-1.063 1.817-.659 3.84.668 5.722.235.678-.15 1.308-.527 1.995-.527 1.788 0 2.955 2.475 4.734 2.24 1.101-.151 1.835-1.308 2.926-1.506 1.44-.263 3.068 1.186 4.235.301.264-.197.48-.517.809-.545.462-.047.744.461 1.026.837 1.261 1.675 5.148.593 7.105-.169l-1.27-11.255c.019-1.468-3.059-1.798-4.339-1.798h.01z" fill="#fff"/><path d="M179.649 178.467c-1.75 5.533-2.437 11.594-.696 17.127.809 2.56 2.108 4.931 3.227 7.378a54.34 54.34 0 014.706 26.773c-.029.31-.047.649.113.913.376.611 1.298.386 1.948.094 1.392-.631 2.785-1.271 4.178-1.901 1.797 1.468 2.07 4.376 4.075 5.562 2.117 1.251 4.771-.151 6.756-1.6 4.376-3.2 8.536-6.936 11.067-11.726 1.741-3.294 2.654-6.945 3.548-10.558.791-3.191 1.581-6.381 2.07-9.627 1.93-12.733-.922-26.134-7.867-36.984" fill="#1F2638" opacity=".3"/><path d="M268.014 183.426s.085.16.207.489c.132.377.292.857.49 1.44.433 1.318 1.016 3.124 1.722 5.317l2.494 7.905c.903 2.983 1.91 6.296 2.371 9.89.452 3.614.16 7.105-.499 10.173-.63 3.078-1.552 5.75-2.371 7.971a100.511 100.511 0 01-2.117 5.176c-.255.564-.462 1.016-.622 1.383-.15.311-.235.48-.244.471-.019 0 .037-.179.16-.508.141-.377.32-.847.536-1.421.471-1.233 1.176-3.002 1.967-5.223.772-2.221 1.656-4.894 2.249-7.943.621-3.039.894-6.474.452-10.022-.461-3.548-1.44-6.842-2.325-9.825-.894-2.973-1.703-5.655-2.399-7.933-.65-2.211-1.186-4.028-1.572-5.364-.16-.593-.301-1.082-.405-1.468-.084-.339-.122-.517-.112-.517l.018.009z" fill="#1F2638"/><path d="M276.155 211.253c1.468-4.461 1.026-9.392-.461-13.843-1.478-4.461-3.943-8.517-6.541-12.431 1.299 8.911 5.374 17.277 6.183 26.246m-74.315 57.037c3.82-5.383 9.401-9.363 15.442-12.027 6.042-2.663 12.563-4.074 19.104-5.015 2.588-.377 5.401-.64 7.669.668s3.341 4.856 1.374 6.578c-.997.866-2.409 1.016-3.717 1.11-9.053.659-18.614.687-26.444 5.289-3.096 1.816-5.844 4.329-9.26 5.42-1.552.499-3.849.217-3.999-1.402" fill="#1F2638" opacity=".3"/><path d="M247.17 250.015s-.189.028-.546.047c-.414 0-.932.019-1.572.038-.348 0-.724 0-1.129.009-.414.028-.866.057-1.346.085-.96.075-2.061.113-3.265.292-.603.075-1.233.15-1.892.235-.659.094-1.327.235-2.032.357-1.412.217-2.89.612-4.452.979a74.905 74.905 0 00-9.853 3.416c-3.397 1.478-6.521 3.143-9.288 4.771-1.364.838-2.672 1.628-3.849 2.447a75.384 75.384 0 00-3.256 2.277c-.997.697-1.854 1.393-2.616 1.977a48.93 48.93 0 00-1.938 1.543c-.499.395-.904.725-1.224.979-.282.216-.433.329-.452.32-.009-.01.123-.151.386-.396.311-.272.687-.621 1.167-1.054a35.328 35.328 0 011.892-1.609c.753-.602 1.6-1.327 2.588-2.042.978-.734 2.042-1.534 3.237-2.334 1.167-.837 2.475-1.637 3.849-2.493 2.766-1.657 5.9-3.351 9.326-4.838a71.592 71.592 0 019.937-3.397c1.581-.357 3.068-.734 4.489-.941.706-.113 1.393-.244 2.052-.329.658-.075 1.298-.141 1.91-.207 1.214-.16 2.324-.17 3.284-.217.49-.018.932-.047 1.355-.047.414.01.791.019 1.139.029.64.018 1.157.037 1.572.056.357.019.545.038.545.056l-.018-.009z" fill="#1F2638"/><path d="M170.832 199.895c-2.4 3.322-2.673 7.801-1.685 11.772s3.096 7.557 5.176 11.086c.282-3.52.01-7.086-.809-10.521-.979-4.122-2.757-8.14-2.748-12.375" fill="#1F2638" opacity=".3"/><path d="M237.873 72.654c.047-3.002 3.482-5.129 6.437-4.63 2.964.5 5.279 2.908 6.663 5.571 1.383 2.663 2.051 5.637 3.096 8.451 2.814 7.576 8.375 14.012 10.389 21.833 1.421 5.495.969 11.349-.508 16.826-1.477 5.477-3.971 10.624-6.653 15.631-1.619 3.03-3.332 6.041-4.376 9.307-1.054 3.265-1.412 6.869-.301 10.125.15.443.32.932.131 1.356-.291.649-1.204.668-1.891.498-3.454-.884-5.844-4.281-6.437-7.801-.593-3.52.311-7.114 1.572-10.455 1.261-3.341 2.879-6.55 3.811-9.994 2.042-7.538.621-15.509.273-23.301-.198-4.395-.057-8.836-.932-13.146-.875-4.31-2.927-8.602-6.568-11.067-1.421-.96-3.059-1.628-4.254-2.861-1.195-1.223-1.797-3.313-.715-4.64" fill="#1F2638"/><path d="M240.96 159.937s-.104-4.554-.094-4.498c0 0 13.476-2.569 15.866-20.289 1.186-8.818.405-23.197-.612-34.951-.922-10.578-8.243-23.404-18.774-22.04l-32.758 9.11c-3.2.414-4.254 3.152-4.113 6.37l-.235 1.516 2.729 50.525.932 8.442c.48 9.598 8.827 19.752 19.132 20.025 9.937.527 18.059-3.566 17.917-14.2l.01-.01z" fill="#FFBE9D"/><path d="M250.088 111.595c.066 1.195-.885 2.24-2.127 2.334-1.242.094-2.315-.791-2.381-1.986-.065-1.195.885-2.239 2.127-2.334 1.242-.094 2.315.791 2.381 1.986zm2.992-3.35c-.273.301-2.023-.932-4.451-.866-2.437.028-4.197 1.327-4.46 1.035-.132-.132.141-.668.903-1.251.753-.584 2.051-1.167 3.567-1.196 1.515-.028 2.804.499 3.557 1.054.762.556 1.026 1.083.894 1.224h-.01zm-23.705 4.555c-.273.301-2.023-.932-4.461-.866-2.437.028-4.197 1.327-4.46 1.035-.132-.131.141-.668.903-1.251.753-.584 2.052-1.167 3.567-1.195 1.515-.029 2.804.498 3.557 1.054.762.555 1.026 1.082.894 1.223zm9.128 13.833c-.019-.141 1.496-.433 3.943-.809.621-.075 1.205-.217 1.299-.64.132-.452-.141-1.12-.461-1.835-.621-1.496-1.271-3.059-1.948-4.696-2.71-6.681-4.696-12.187-4.423-12.29.273-.104 2.691 5.223 5.401 11.914.65 1.646 1.28 3.218 1.873 4.724.254.705.678 1.496.377 2.437-.16.471-.603.819-.998.932-.395.131-.743.15-1.054.169-2.465.188-3.999.235-4.009.104v-.01z" fill="#1F2638"/><path d="M240.866 155.43s-11.857 1.044-23.79-5.75c0 0 6.258 12.318 23.894 10.248l-.094-4.498h-.01z" fill="#E79B73"/><path d="M229.282 106.636c-.283.649-2.692.179-5.562.348-2.88.113-5.232.8-5.571.188-.151-.292.292-.894 1.261-1.477.96-.584 2.475-1.101 4.197-1.186 1.722-.085 3.275.292 4.291.772 1.026.489 1.515 1.035 1.393 1.345l-.009.01zm23.432-5.91c-.499.565-2.494.038-4.884.066-2.391-.038-4.405.48-4.884-.094-.208-.273.094-.838.969-1.383.856-.546 2.305-1.007 3.943-.998 1.637 0 3.077.47 3.915 1.016.856.546 1.148 1.111.931 1.384l.01.009z" fill="#1F2638"/><path d="M236.687 131.753c-.677-.951-1.873-1.44-3.04-1.525-1.101-.075-2.597.64-3.491 1.675a2.984 2.984 0 00-.056.057c-.038.047-.094.084-.132.131l.047-.018c-.329.367-.565.828-.602 1.317-.085 1.101.564 2.155 1.449 2.823 1.402 1.054 3.491 1.214 4.912.198 1.431-1.017 1.92-3.228.904-4.649l.009-.009z" fill="#E79B73"/><path d="M230.363 129.391c.141-.01.254.564.64 1.364.377.791 1.101 1.817 2.23 2.494 1.13.668 2.381.828 3.256.781.885-.037 1.45-.207 1.506-.085.057.104-.433.509-1.421.734-.96.226-2.456.179-3.821-.63-1.355-.819-2.117-2.108-2.371-3.058-.273-.97-.141-1.6-.028-1.6h.009zm11.01-50.959c-.32 1.76.622 3.539 1.92 4.772 1.299 1.232 2.917 2.042 4.433 2.992 4.705 2.936 7.029 9.354 9.231 14.445 3.877-7.378-2.089-16.948-7.011-22.717-.884-1.044-1.863-2.051-3.077-2.672-1.214-.63-2.719-.828-3.952-.236" fill="#1F2638"/><path d="M256.967 137.362s.057-.236.207-.65c.17-.461.395-1.073.668-1.835.537-1.609 1.337-3.933 2.033-6.879 1.43-5.863 2.475-14.304 1.289-23.479-.583-4.574-1.571-8.903-3.049-12.61-1.477-3.708-3.595-6.71-5.881-8.658-2.268-1.995-4.583-2.965-6.193-3.407-1.637-.433-2.587-.423-2.578-.48 0-.019.235-.019.687 0 .452.028 1.11.104 1.939.292 1.656.395 4.027 1.327 6.37 3.322 2.372 1.957 4.555 5.006 6.08 8.752 1.524 3.754 2.522 8.102 3.115 12.713 1.195 9.251.084 17.749-1.44 23.63-.753 2.955-1.6 5.27-2.193 6.861-.32.79-.583 1.392-.762 1.806-.179.415-.282.622-.301.612l.009.01z" fill="#D33C3C"/><path d="M258.557 150.066s-.037-.066-.084-.207c-.057-.17-.123-.377-.207-.622a11.479 11.479 0 01-.405-2.493c-.17-2.193.376-5.44 2.117-8.969 1.666-3.585 4.715-7.18 7.623-11.415 1.44-2.126 2.814-4.46 3.689-7.105.866-2.635 1.223-5.542.997-8.488a21.53 21.53 0 00-2.324-8.225c-1.28-2.475-2.964-4.602-4.677-6.512-3.454-3.811-6.917-6.983-9.176-10.21-2.324-3.172-3.528-6.202-3.914-8.357-.405-2.164-.217-3.388-.217-3.388.066 0-.056 1.224.405 3.35.442 2.118 1.675 5.082 4.009 8.197 2.268 3.171 5.731 6.286 9.232 10.107 1.731 1.92 3.453 4.075 4.771 6.597a21.755 21.755 0 012.381 8.403 22.404 22.404 0 01-1.026 8.677c-.904 2.701-2.315 5.072-3.774 7.208-2.955 4.254-6.004 7.792-7.679 11.312-1.75 3.472-2.343 6.644-2.23 8.808.066 2.174.583 3.313.499 3.332h-.01zm-20.025-80.884c-3.021-2.146-6.917-2.626-10.615-2.57-9.976.142-20.101 3.953-26.774 11.369-5.618 6.239-13.927 18.266-15.508 26.519-3.83 20.091 8.865 25.719-1.478 57.084-1.863 5.656-4.216 11.171-5.364 17.014-.404 2.061-.621 4.198-.574 6.315-1.214 3.67-.47 7.914 1.026 11.566 1.76 4.291 4.442 8.149 6.126 12.469 1.685 4.319 5.393 11.405 2.918 15.32 3.491-.932 3.613-4.574 6.38-6.898a18.2 18.2 0 01-.075 9.505A19.86 19.86 0 00206.319 222c6.456-5.684 8.489-14.822 9.477-23.366 2.164-18.69.047-36.598-4.903-54.742l-.075.085c-3.605-11.603-10.418-22.322-4.292-24.872 10.662-4.451.923-9.138 4.988-20.355 1.27-3.5 2.682-7.209 5.674-9.43 3.558-2.644 8.376-2.512 12.799-2.757 4.432-.245 9.457-1.402 11.537-5.326l.273-2.343c1.562-3.36-.235-7.557-3.265-9.703v-.01z" fill="#1F2638"/><path d="M190.406 143.459s.367-.188.781-.79c.424-.593.715-1.685.593-3.068-.301-2.776-1.703-6.625-3.538-11.293-.876-2.352-1.864-4.95-2.391-7.886-.536-2.908-.527-6.239.687-9.401 1.167-3.152 3.36-6.126 6.399-8.196 3.002-2.165 7.105-2.494 9.618-5.44 2.588-2.795 3.736-6.455 4.856-9.862.565-1.713 1.139-3.416 1.882-4.997a25.598 25.598 0 012.626-4.414 26.039 26.039 0 016.926-6.436c1.261-.791 2.559-1.44 3.896-1.845a11.368 11.368 0 013.952-.47c2.55.131 4.743.922 6.597 1.637 1.854.762 3.435 1.43 4.677 2.108 1.242.687 2.061 1.468 2.475 2.09.414.62.499 1.015.499 1.015-.028.01-.151-.367-.574-.96-.433-.592-1.252-1.326-2.485-1.976-1.232-.64-2.832-1.289-4.686-2.023-1.854-.696-4.028-1.44-6.512-1.553a11.102 11.102 0 00-3.83.48c-1.29.405-2.56 1.045-3.793 1.826a25.57 25.57 0 00-6.785 6.361 25.1 25.1 0 00-2.569 4.339c-.734 1.562-1.289 3.237-1.854 4.95-1.11 3.397-2.268 7.142-4.95 10.04-1.308 1.469-3.058 2.447-4.799 3.125-1.741.696-3.435 1.355-4.903 2.372-2.955 2.004-5.091 4.893-6.249 7.961-1.185 3.068-1.223 6.296-.705 9.166.498 2.889 1.458 5.477 2.315 7.829 1.788 4.687 3.152 8.564 3.397 11.397.094 1.421-.236 2.54-.706 3.143a2.485 2.485 0 01-.612.593c-.16.103-.244.15-.254.141l.019.037z" fill="#D33C3C"/><path d="M205.943 120.639c-.264-3.755-4.414-6.173-7.632-4.216-1.769 1.073-3.087 3.181-2.842 7.161.668 10.625 11.198 7.764 11.198 7.463 0-.188-.414-6.013-.724-10.399v-.009z" fill="#FFBE9D"/><path d="M203.176 127.217c-.047-.028-.179.141-.48.301a1.82 1.82 0 01-1.383.113c-1.148-.339-2.202-2.061-2.381-3.981a6.206 6.206 0 01.348-2.682c.273-.8.744-1.374 1.299-1.505a.928.928 0 011.12.442c.16.292.103.508.16.517.028.029.216-.188.103-.63a1.176 1.176 0 00-.461-.64c-.263-.188-.649-.273-1.044-.207-.819.104-1.506.913-1.835 1.769a6.256 6.256 0 00-.452 3.002c.197 2.136 1.421 4.075 2.992 4.423.763.151 1.365-.113 1.675-.386.311-.282.358-.527.32-.546l.019.01z" fill="#E79B73"/><path d="M207.222 134.473s.076.216-.019.592c-.094.367-.376.904-.959 1.299-.565.414-1.506.602-2.391.273-.884-.292-1.712-1.054-2.089-2.061-.395-.997-.386-2.042-.179-2.927a4.917 4.917 0 011.101-2.117c.951-1.035 1.892-1.101 1.882-1.054.038.085-.818.273-1.618 1.28a4.901 4.901 0 00-.922 1.995c-.17.809-.16 1.76.188 2.644.339.885 1.035 1.534 1.788 1.817.762.301 1.524.178 2.051-.142.537-.31.828-.752.97-1.072.141-.32.16-.527.197-.527z" fill="#fff"/><path d="M239.304 80.06c-.057.057-.659-.856-2.249-1.91-1.581-1.007-4.311-1.967-7.698-1.618-1.685.15-3.501.668-5.261 1.58-1.75.942-3.454 2.25-4.997 3.878-1.553 1.618-2.945 3.538-4.244 5.618-1.289 2.08-2.466 4.338-3.68 6.653-1.214 2.315-2.427 4.564-3.801 6.635-1.356 2.07-2.889 3.933-4.527 5.514-1.619 1.59-3.228 3.011-4.62 4.461-1.393 1.43-2.57 2.898-3.369 4.385-1.619 2.993-1.798 5.9-1.346 7.726.442 1.854 1.242 2.654 1.167 2.692-.01.009-.179-.198-.471-.612-.254-.433-.649-1.092-.875-2.033-.518-1.854-.386-4.846 1.223-7.933.8-1.543 1.986-3.04 3.379-4.498 1.393-1.468 3.002-2.908 4.592-4.498 1.609-1.572 3.106-3.407 4.442-5.459 1.346-2.042 2.55-4.29 3.764-6.596s2.39-4.574 3.708-6.682c1.317-2.089 2.729-4.037 4.329-5.674 1.581-1.647 3.331-2.984 5.138-3.925 1.816-.922 3.689-1.43 5.411-1.562 3.473-.32 6.258.725 7.839 1.798.791.555 1.336 1.072 1.666 1.458.329.386.489.593.48.612v-.01z" fill="#D33C3C"/><path d="M159.229 195.095l1.976-9.542-18.181-8.291s-.17.555-.471 1.562c-2.597 8.649-15.555 50.328-16.336 53.443-2.927 11.566-2.278 34.452 2.343 38.743 3.689 3.426 10.775 5.948 15.461 5.43 4.687-.517 17.598-17.146 17.598-17.146l11.857-37.962-14.247-26.218v-.019z" fill="#FFBE9D"/><path d="M160.029 189.421s-.019.254-.094.743c-.085.527-.207 1.224-.348 2.099-.339 1.873-.81 4.489-1.393 7.707-.584 3.256-1.271 7.133-1.854 11.462-.583 4.329-1.073 9.11-1.101 14.144 0 5.035.536 9.816 1.59 14.05 1.026 4.235 1.977 8.122 1.873 11.481-.047 3.35-.979 5.985-1.957 7.566-.97 1.609-1.826 2.221-1.826 2.221-.056-.047.762-.715 1.656-2.324.904-1.591 1.769-4.188 1.769-7.472.057-3.294-.912-7.133-1.966-11.378-1.083-4.253-1.638-9.09-1.638-14.153.019-5.063.537-9.872 1.139-14.201.612-4.338 1.336-8.215 1.967-11.462.64-3.209 1.167-5.815 1.543-7.679.188-.866.329-1.562.442-2.079.104-.48.17-.725.189-.725h.009z" fill="#E79B73"/><path d="M178.822 169.771l-3.52-3.896v-4.63l-3.66-5.241-7.284 1.167-2.221.188 1.477-10.634s.678-2.691 3.275-7.877c2.598-5.194-1.581-7.566-1.581-7.566l-7.81 13.664-2.598 9.082-1.11-7.416s1.317-7.208 1.129-10.916c-.188-3.708-3.915-3.172-3.915-3.172l-2.964 16.309v8.159l-2.597-4.818s-.556-4.075-.923-7.783-3.34-2.597-3.34-2.597v12.045l3.34 11.124s-2.192 14.351-2.559 14.906l17.165 12.027s3.745-2.842 4.488-3.021c.744-.179 10.013-7.049 10.013-7.049l6.484-6.86s1.111-.743 1.111-1.487c0-.743-2.409-3.708-2.409-3.708h.009zm-8.893 4.452l-3.708-1.666-2.042-5.006 1.515-2.748.527-.96.678-.471 2.475.471s1.11 3.519.922 5.194c-.188 1.666 2.042 3.341 2.042 3.341l-2.409 1.854v-.009z" fill="#FFBE9D"/><path d="M166.899 163.363c0 .056-.339.085-.857-.075-.508-.16-1.167-.546-1.694-1.186-.517-.64-.771-1.365-.828-1.892-.056-.536.038-.856.094-.847.142 0 .142 1.29 1.111 2.428.932 1.167 2.202 1.431 2.164 1.563l.01.009zm9.543 9.608c-.142-.018-.057-1.223 0-2.7.065-1.478.094-2.682.235-2.692.132-.009.329 1.205.254 2.72-.066 1.506-.367 2.701-.499 2.682l.01-.01zm-5.722 7.011s-.471-.301-1.007-1.016c-.509-.716-1.139-1.882-.96-3.341a1.89 1.89 0 01.461-.979c.216-.244.442-.452.659-.649.432-.386.846-.706 1.204-.96.715-.508 1.223-.743 1.261-.659.019.047-.395.367-1.044.932-.32.282-.706.621-1.111 1.016-.198.198-.405.405-.602.64-.17.207-.292.461-.339.753-.103.583.019 1.195.179 1.722.15.527.386.969.593 1.336.433.734.771 1.158.715 1.205h-.009zm4.592-14.577c.113-.019.103 1.92-1.233 3.821-.339.461-.781.847-1.261 1.054a2.207 2.207 0 01-1.365.131c-.799-.197-1.006-.743-.941-.753.057-.056.339.339 1.007.415.32.037.734 0 1.111-.198.386-.198.753-.527 1.063-.941 1.242-1.741 1.478-3.567 1.628-3.529h-.009zm-4.997 3.359c-.113 0-.386-1.628-.904-3.642-.235-1.007-.423-1.938-.489-2.625s-.019-1.12.037-1.12c.076 0 .151.414.302 1.063.225.923.414 1.722.621 2.569.527 2.014.583 3.755.423 3.755h.01z" fill="#E79B73"/><path d="M176.441 174.082c0 .103-2.071-.141-4.197-1.487-.537-.329-1.017-.715-1.365-1.158a3.153 3.153 0 01-.63-1.345c-.151-.838.018-1.337.065-1.327.085 0 .047.517.264 1.242.198.743.885 1.572 1.92 2.174 2.042 1.289 3.99 1.741 3.943 1.901zm-15.283 4.121c-.141.085-1.336-2.71-4.112-5.063-2.739-2.39-5.684-3.152-5.618-3.303.009-.056.762.057 1.891.49 1.13.432 2.635 1.232 4.047 2.437 1.411 1.214 2.428 2.578 3.021 3.632.602 1.054.818 1.779.771 1.798v.009zm-6.21-17.315c0 .141-1.355.264-2.927.809-1.572.537-2.72 1.29-2.804 1.167-.085-.094.978-1.063 2.644-1.628 1.656-.574 3.096-.47 3.087-.348z" fill="#E79B73"/><path d="M184.731 367.562s-54.986 15.217-57.188 15.998c-3.312 1.167-2.757 13.298 2.4 13.109 2.437-.084 42.234 1.487 47.26 1.167 5.025-.31 18.557-5.655 18.557-5.655l-11.029-24.619z" fill="#D33C3C"/><path d="M161.835 388.539c-.273.037-.649-2.87-2.418-5.901-1.732-3.058-4.056-4.837-3.887-5.062.094-.217 2.823 1.336 4.687 4.601 1.891 3.247 1.854 6.39 1.628 6.362h-.01zm5.731-2.597c-.273.047-.828-2.551-2.287-5.421-1.439-2.889-3.19-4.884-2.992-5.072.15-.179 2.296 1.618 3.821 4.658 1.533 3.03 1.703 5.825 1.468 5.835h-.01zm5.374-1.44c-.273-.019-.066-2.767-1.289-5.806-1.167-3.068-3.191-4.941-2.993-5.139.113-.207 2.578 1.487 3.849 4.809 1.308 3.303.649 6.221.433 6.145v-.009z" fill="#1F2638"/><path d="M171.961 377.397c-.094.028-.583-1.506-.593-4.094 0-1.289.151-2.823.555-4.479.198-.828.471-1.685.819-2.55.179-.433.386-.941.885-1.346.508-.461 1.449-.367 1.891.094.508.442.668 1.054.734 1.553a11.733 11.733 0 01-.263 4.14c-.405 1.675-1.064 3.087-1.694 4.207-1.28 2.23-2.39 3.369-2.466 3.312-.122-.084.791-1.364 1.892-3.613.536-1.12 1.101-2.503 1.44-4.084.169-.791.263-1.638.263-2.513-.028-.847-.009-1.901-.508-2.306-.264-.216-.499-.235-.725-.056-.244.188-.442.564-.602.96a18.889 18.889 0 00-.828 2.428 21.975 21.975 0 00-.725 4.291c-.16 2.494.094 4.046-.056 4.065l-.019-.009z" fill="#1F2638"/><path d="M172.037 376.842c-.029-.104 1.298-.556 3.547-.574 1.12 0 2.457.113 3.906.48.715.188 1.477.376 2.249.828.753.385 1.543 1.43 1.242 2.512-.235 1.026-1.11 1.741-1.976 1.967-.875.245-1.722.16-2.466 0-1.505-.348-2.682-1.092-3.576-1.76-1.76-1.383-2.625-2.437-2.559-2.512.094-.113 1.138.79 2.926 1.985.904.574 2.033 1.195 3.369 1.459.668.132 1.393.169 2.042-.028.65-.179 1.186-.668 1.337-1.308.16-.612-.217-1.177-.819-1.534-.593-.367-1.318-.574-1.995-.781a19.157 19.157 0 00-3.708-.65c-2.155-.15-3.501.066-3.519-.075v-.009zm-18.653 12.29c-.273-.029 0-2.381-1.082-4.96-1.026-2.597-2.861-4.093-2.691-4.3.094-.226 2.39 1.082 3.547 3.952 1.186 2.861.452 5.402.236 5.308h-.01zm38.368 2.531c.028.057-.734.414-2.127.998a47.646 47.646 0 01-6.117 1.901c-5.26 1.327-12.751 2.08-20.995 1.985-8.244-.094-15.669-.47-21.051-.677-2.551-.132-4.687-.245-6.371-.339-1.506-.103-2.334-.188-2.334-.245 0-.065.837-.103 2.343-.113 1.685.01 3.83.029 6.38.048 5.571.112 12.912.254 21.033.414 8.197.084 15.603-.556 20.844-1.704 5.261-1.082 8.329-2.437 8.385-2.258l.01-.01z" fill="#1F2638"/><path d="M193.37 392.924c-.075.123-1.581-.753-4.122-1.863-2.512-1.073-6.277-2.372-10.408-1.732-4.141.631-7.077 3.416-8.996 5.346-1.93 2.004-3.059 3.331-3.172 3.237-.084-.066.857-1.525 2.692-3.68.931-1.063 2.108-2.296 3.642-3.406 1.524-1.12 3.481-2.071 5.684-2.409 4.432-.678 8.337.8 10.822 2.051 2.522 1.289 3.905 2.362 3.849 2.456h.009zm-55.156 2.372c-.103-.066.367-.791.8-2.08.442-1.271.772-3.153.405-5.166-.377-2.014-1.355-3.652-2.221-4.687-.866-1.045-1.562-1.553-1.496-1.656.047-.076.865.291 1.882 1.298 1.007.989 2.164 2.72 2.569 4.903.404 2.184-.057 4.207-.65 5.496-.592 1.308-1.232 1.939-1.298 1.882l.009.01z" fill="#1F2638"/><path d="M179.377 289.897l-9.881 24.336s-49.105-17.965-77.845-12.733c-10.925 1.986-22.623 26.783-6.7 42.706 15.537 15.536 43.317 37.501 95.442 44.606 1.299.179 22.651 4.761 21.334 4.601-1.318-.15 29.935 4.791 29.935 4.791l7.331-27.743 58.223 9.138c34.311-2.343 51.099-39.035 30.443-50.846-19.273-11.019-55.513-11.904-55.513-11.904l-8.902-24.27-83.867-2.701v.019z" fill="#1F2638"/><path d="M232.828 399.22c.151-.941.565-3.463 1.412-8.649a463.27 463.27 0 011.769-10.022c.367-1.938.781-4.009 1.271-6.183.254-1.091.517-2.202.837-3.34.16-.565.33-1.139.537-1.713.216-.574.404-1.148.884-1.713l.085.424c-12.394-4.404-27.884-10.211-44.399-17.175-10.154-4.319-19.734-8.676-28.157-13.221-4.197-2.287-8.149-4.583-11.546-7.162-3.426-2.531-6.475-5.053-9.336-7.255-5.665-4.47-10.803-7.36-14.643-8.583-.941-.358-1.816-.565-2.559-.762a15.147 15.147 0 00-1.92-.414c-.499-.094-.885-.16-1.186-.217-.263-.056-.404-.084-.404-.094 0-.009.141 0 .414.028.301.038.696.095 1.204.16.527.066 1.186.16 1.939.358.762.179 1.647.358 2.597.706 1.948.574 4.226 1.6 6.738 3.002 2.513 1.411 5.223 3.275 8.103 5.467 2.879 2.184 5.947 4.687 9.373 7.19 3.387 2.55 7.321 4.809 11.518 7.077 8.413 4.498 17.984 8.836 28.128 13.146 16.497 6.955 31.968 12.808 44.315 17.278l.348.122-.254.292c-.33.377-.565.969-.762 1.515-.208.556-.377 1.12-.537 1.675a85.435 85.435 0 00-.856 3.313 188.235 188.235 0 00-1.318 6.154 540.263 540.263 0 00-1.882 9.994c-.508 2.729-.903 4.875-1.186 6.381a51.01 51.01 0 01-.348 1.665c-.084.377-.16.556-.16.556h-.019z" fill="#D33C3C"/><path d="M316.366 332.123s-.113 0-.31-.029c-.245-.037-.537-.084-.904-.141-.8-.103-1.957-.404-3.482-.546-3.02-.442-7.462-.734-12.911-.461-5.458.264-11.904 1.318-18.906 3.115a155.747 155.747 0 00-10.841 3.322c-3.717 1.289-7.509 2.776-11.396 4.32-3.887 1.571-7.811 2.785-11.613 3.83-3.811 1.054-7.528 1.872-11.095 2.559-7.123 1.384-13.598 2.24-19.037 2.908-5.44.659-9.853 1.111-12.902 1.421-1.487.141-2.663.264-3.51.348-.367.029-.668.057-.913.076-.207.009-.311.019-.311 0 0-.01.104-.038.311-.066.245-.038.536-.085.903-.132.847-.113 2.014-.263 3.501-.461 3.087-.386 7.472-.941 12.874-1.619 5.43-.715 11.885-1.618 18.981-3.03 3.548-.706 7.255-1.534 11.038-2.588 3.793-1.044 7.679-2.258 11.547-3.82 3.877-1.544 7.698-3.031 11.425-4.32a161.555 161.555 0 0110.897-3.303c7.039-1.788 13.532-2.795 19.028-3.002 5.487-.226 9.947.141 12.968.659 1.525.188 2.673.527 3.473.668.367.085.658.15.894.207.197.047.301.085.301.094l-.01-.009z" fill="#D33C3C"/><path d="M226.674 322.138c.038.414-2.607 1.073-6.964 1.487-4.357.414-10.436.489-17.089-.217-6.654-.715-12.582-2.079-16.751-3.406-4.179-1.327-6.616-2.532-6.494-2.927.273-.875 10.587 1.863 23.574 3.218 12.977 1.431 23.63.932 23.715 1.854l.009-.009z" fill="#1F2638"/><path d="M272.701 317.263s-.677.226-1.92.508c-.621.132-1.383.33-2.249.584-.875.245-1.863.517-2.936.903-2.174.678-4.686 1.732-7.434 2.955a103.857 103.857 0 00-8.639 4.611c-5.957 3.595-11.01 7.397-14.577 10.249a180.17 180.17 0 00-4.188 3.425c-.978.819-1.543 1.252-1.571 1.223-.029-.028.47-.527 1.411-1.402.932-.875 2.315-2.108 4.075-3.585 3.501-2.946 8.535-6.823 14.53-10.446a92.239 92.239 0 018.724-4.602c2.785-1.204 5.326-2.221 7.537-2.851 1.092-.358 2.099-.602 2.984-.819a20.838 20.838 0 012.286-.489c1.261-.217 1.967-.32 1.977-.273l-.01.009zm-54.581 24.468c-.019.075-1.365-.217-3.454-.979-2.089-.753-4.875-2.023-7.877-3.557-2.889-1.515-5.505-2.889-7.641-4-1.958-1.016-3.181-1.618-3.143-1.703.028-.075 1.327.386 3.331 1.308 2.014.913 4.734 2.305 7.726 3.839 2.993 1.534 5.731 2.852 7.754 3.708 2.024.866 3.313 1.299 3.285 1.393l.019-.009zm5.308-50.403c.094.018-.076 2.239-.254 5.844a211.633 211.633 0 00-.264 14.087c.085 5.505.405 10.474.706 14.069.292 3.595.536 5.806.433 5.825-.047 0-.151-.536-.311-1.524-.169-.988-.357-2.438-.564-4.235-.415-3.586-.8-8.583-.885-14.116-.085-5.533.151-10.54.452-14.144.15-1.807.301-3.256.433-4.254.131-.997.225-1.552.263-1.543l-.009-.009zm5.467 9.542c.029.047-.207.188-.508.546-.31.348-.649.96-.771 1.769-.104.8.047 1.863.752 2.635.687.79 1.986 1.026 3.134.593 1.158-.424 1.986-1.45 1.995-2.494.038-1.054-.546-1.948-1.148-2.494-.621-.546-1.28-.781-1.741-.847-.461-.075-.734-.019-.743-.085 0-.028.254-.16.762-.16s1.27.179 2.004.753c.706.565 1.44 1.544 1.44 2.842.028 1.308-1.007 2.588-2.352 3.068-1.337.508-2.946.217-3.783-.79-.847-.979-.932-2.202-.763-3.096.188-.913.64-1.553 1.035-1.873.396-.329.678-.395.687-.377v.01zm10.455 68.848s55.805 8.479 58.063 8.987c3.388.753 4.273 12.742-.809 13.165-2.409.198-41.312 6.428-46.291 6.71-4.978.282-20.581-3.802-20.581-3.802l9.627-25.051-.009-.009z" fill="#D33C3C"/><path d="M264.317 387.636c.272 0 .301-2.899 1.684-6.079 1.336-3.209 3.416-5.233 3.228-5.43-.122-.198-2.616 1.647-4.066 5.072-1.477 3.407-1.072 6.493-.846 6.437zm-5.939-1.883c.273.019.509-2.606 1.61-5.599 1.072-3.002 2.559-5.176 2.343-5.336-.169-.16-2.07 1.864-3.2 5.026-1.157 3.152-.988 5.919-.753 5.909zm-5.449-.78c.273-.047-.263-2.72.584-5.854.79-3.152 2.55-5.232 2.334-5.401-.132-.189-2.353 1.769-3.219 5.175-.903 3.398.094 6.192.301 6.089v-.009z" fill="#1F2638"/><path d="M253.052 377.886c.103.01.395-1.553.094-4.084a18.872 18.872 0 00-1.073-4.338 18.15 18.15 0 00-1.101-2.409c-.226-.405-.489-.876-1.026-1.224-.555-.395-1.468-.188-1.844.311-.442.489-.527 1.12-.537 1.609 0 .499.029.969.104 1.44.122.931.348 1.807.649 2.607.593 1.599 1.402 2.907 2.155 3.933 1.525 2.042 2.748 3.03 2.814 2.964.113-.103-.941-1.251-2.287-3.321-.658-1.036-1.374-2.325-1.901-3.849a11.877 11.877 0 01-.555-2.438c-.075-.828-.207-1.872.226-2.324.235-.245.461-.282.706-.141.263.15.508.498.706.875a18.98 18.98 0 011.101 2.287 22.414 22.414 0 011.223 4.131c.452 2.428.386 3.981.536 3.99l.01-.019z" fill="#1F2638"/><path d="M252.92 377.341c.009-.104-1.346-.396-3.548-.142-1.101.132-2.4.405-3.774.932-.677.273-1.402.546-2.108 1.073-.696.461-1.345 1.581-.922 2.616.348.979 1.299 1.581 2.174 1.694.885.141 1.713-.047 2.419-.292 1.439-.517 2.503-1.383 3.303-2.145 1.571-1.563 2.286-2.711 2.211-2.777-.113-.103-1.026.904-2.644 2.297-.819.668-1.854 1.411-3.143 1.835-.64.207-1.346.329-2.005.216-.659-.103-1.242-.517-1.468-1.129-.226-.584.075-1.186.621-1.6.537-.423 1.224-.715 1.873-.997a18.151 18.151 0 013.567-1.073c2.098-.405 3.444-.339 3.453-.49l-.009-.018zm19.762 9.88c.264-.065-.273-2.343.48-4.997.706-2.672 2.334-4.357 2.136-4.545-.113-.207-2.221 1.336-3.011 4.301-.828 2.955.188 5.364.395 5.241zm-37.387 7.002c-.019.056.771.32 2.202.734 1.449.358 3.566.847 6.229 1.139 5.317.687 12.771.536 20.854-.518 8.084-1.054 15.33-2.296 20.6-3.143 2.484-.433 4.574-.79 6.22-1.082 1.468-.273 2.268-.461 2.259-.518 0-.066-.838 0-2.315.17-1.656.207-3.755.48-6.258.79-5.458.762-12.657 1.769-20.619 2.88-8.046 1.044-15.395 1.289-20.675.781-5.288-.442-8.46-1.412-8.507-1.233h.01z" fill="#1F2638"/><path d="M233.845 395.644c.085.113 1.459-.922 3.83-2.315 2.344-1.355 5.882-3.068 10.013-2.927 4.141.132 7.359 2.523 9.467 4.198 2.127 1.741 3.397 2.907 3.492 2.804.075-.075-1.017-1.402-3.078-3.294-1.035-.931-2.333-2.004-3.98-2.917-1.628-.922-3.67-1.628-5.863-1.694-4.433-.141-8.093 1.769-10.389 3.284-2.325 1.563-3.558 2.786-3.492 2.861z" fill="#1F2638"/><path d="M271.308 229.585c-.216 1.374-.941 38.555 1.28 41.961 3.491 5.355 14.756 14.954 21.748 12.338 11.358-4.254 13.927-28.279 13.72-23.828l-8.996-75.915h-17.297l-1.44 27.225-5.044 3.077c-.329 3.134-.988 6.239-1.929 9.335l-2.042 5.807z" fill="#FFBE9D"/><path d="M281.773 184.141s-6.907-6.823-6.907-8.347c0-1.525-2.701-2.362-2.701-2.362l-4.385-2.193s-2.871-2.701-2.193-4.216c.677-1.515 1.854-2.023 1.854-2.023s.226-3.708 2.974-4.724c0 0-2.588-2.87 0-4.884 2.587-2.023 3.209-1.176 3.209-1.176s-.283-2.193 1.232-2.363c1.515-.169 12.356-2.87 12.356-2.87s2.984 1.515 4.329 2.87c1.346 1.356 2.024 2.193 2.024 2.193s2.023-2.531 2.7-5.053c.678-2.532 1.685-10.117 9.27-9.778v1.854s-2.023 2.701-3.03 7.416c-1.007 4.724-2.871 15.16-2.871 15.16l-.564 20.496h-17.297z" fill="#FFBE9D"/><path d="M275.11 259.868s-.066-.263-.15-.762c-.076-.508-.217-1.242-.292-2.212-.207-1.929-.348-4.743-.113-8.196.216-3.463.772-7.557 1.619-12.055.818-4.498 1.938-9.411 2.766-14.605 1.609-10.418 1.826-19.988 2.089-26.896.123-3.416.217-6.201.292-8.187l.113-2.221c.028-.508.056-.772.075-.772.019 0 .029.273.029.781 0 .556-.01 1.299-.019 2.231-.029 1.985-.076 4.771-.132 8.187-.179 6.907-.329 16.497-1.948 26.961-.838 5.223-1.957 10.126-2.804 14.615-.876 4.479-1.459 8.554-1.722 11.989-.273 3.435-.189 6.239-.038 8.159.047.969.16 1.703.197 2.211.048.509.066.772.057.781l-.019-.009zm12.074-106.754c0 .066-.753.047-1.957.207-1.205.151-2.88.33-4.734.499-3.698.339-6.709.499-6.728.367-.019-.132 2.973-.517 6.681-.856 1.854-.17 3.529-.292 4.743-.358 1.224-.075 1.995.076 1.986.141h.009zm-3.19 8.093c-.009.076-.753 0-1.957-.066-1.195-.075-2.861-.103-4.696-.141-1.845-.037-3.52-.16-4.715-.357-1.204-.188-1.919-.424-1.91-.48.019-.076.753.037 1.948.132 1.195.103 2.851.169 4.686.207 1.835.037 3.511.131 4.715.291 1.205.16 1.929.358 1.92.414h.009zm-2.484 6.541c-.01.066-.772-.028-1.995-.235a135.733 135.733 0 01-4.753-.913 159.58 159.58 0 01-4.724-1.045c-1.204-.291-1.938-.508-1.919-.574.018-.066.781.028 1.995.235 1.223.208 2.898.527 4.742.904 1.845.386 3.511.753 4.715 1.044 1.205.292 1.939.509 1.929.575l.01.009z" fill="#E79B73"/><path d="M310.478 80.41c1.842 0 3.523.303 5.043.91 1.543.585 2.855 1.426 3.937 2.524 1.106 1.075 1.958 2.395 2.557 3.96.621 1.542.932 3.27.932 5.187 0 1.892-.299 3.633-.898 5.222-.599 1.565-1.451 2.92-2.556 4.065-1.105 1.122-2.429 1.998-3.972 2.629-1.52.607-3.213.911-5.078.911-1.911 0-3.638-.304-5.181-.911-1.543-.608-2.867-1.461-3.973-2.559-1.082-1.121-1.922-2.465-2.521-4.03-.576-1.566-.864-3.306-.864-5.222 0-1.916.3-3.657.898-5.222.622-1.565 1.486-2.897 2.591-3.995 1.105-1.098 2.429-1.951 3.972-2.559 1.543-.607 3.247-.91 5.113-.91zm-6.183 12.65c0 .842.115 1.671.345 2.49a6.974 6.974 0 001.14 2.172 5.802 5.802 0 001.934 1.542c.806.374 1.773.56 2.902.56 1.059 0 1.957-.198 2.694-.595a5.917 5.917 0 001.865-1.577 6.343 6.343 0 001.037-2.138c.23-.794.345-1.577.345-2.348 0-.724-.104-1.484-.311-2.278a6.269 6.269 0 00-1.036-2.208c-.484-.654-1.117-1.192-1.9-1.612-.76-.444-1.693-.666-2.798-.666s-2.061.199-2.867.596a5.803 5.803 0 00-1.934 1.542 6.401 6.401 0 00-1.071 2.138 8.533 8.533 0 00-.345 2.383zm30.382 3.05c-1.208 0-2.188 1.015-2.188 2.268v3.918c0 1.79-1.399 3.241-3.126 3.241-1.726 0-3.126-1.451-3.126-3.241v-18.33c0-1.79 1.4-3.241 3.126-3.241 1.727 0 3.126 1.45 3.126 3.24v4.091c0 1.216.951 2.201 2.123 2.201a2.11 2.11 0 001.84-1.104l3.816-6.883c.53-.956 1.513-1.545 2.576-1.545 2.341 0 3.762 2.677 2.51 4.727l-2.557 4.188a5.992 5.992 0 00-.121 6.006l2.801 5.042c1.198 2.156-.303 4.849-2.704 4.849-1.143 0-2.195-.648-2.741-1.69l-3.433-6.552a2.176 2.176 0 00-1.922-1.185z" fill="#1F2638"/></svg>