<svg width="24" height="24" fill="none" xmlns="http://www.w3.org/2000/svg"><g clip-path="url(#clip0_107_634)"><path d="M23.244 9.817H11.967v4.662h6.426c-.252 1.512-1.134 2.772-2.394 3.59-3.339 2.206-8.883 1.387-10.773-3.78-.504-1.574-.504-3.023 0-4.598 1.386-4.347 7.308-6.867 11.277-3.15l3.465-3.402c-4.914-4.725-14.49-4.536-18.71 3.465-1.45 2.898-1.89 6.993 0 10.773 3.023 5.956 10.304 8.334 16.26 5.31.856-.435 1.658-.97 2.387-1.593 2.835-2.646 4.095-7.056 3.34-11.277z" fill="#fff"/></g><defs><clipPath id="clip0_107_634"><path fill="#fff" d="M0 0h23.459v24H0z"/></clipPath></defs></svg>