<svg width="24" height="24" fill="none" xmlns="http://www.w3.org/2000/svg"><g clip-path="url(#clip0_107_12)" fill="#fff"><path d="M23.94 7.056c-.057-1.275-.264-2.152-.559-2.912a5.856 5.856 0 00-1.388-2.128A5.909 5.909 0 0019.869.633C19.105.338 18.232.13 16.957.075 15.672.015 15.264 0 12.005 0c-3.26 0-3.667.014-4.948.07-1.275.057-2.152.263-2.912.558a5.857 5.857 0 00-2.129 1.388A5.91 5.91 0 00.633 4.14C.338 4.904.131 5.776.075 7.05.015 8.336 0 8.744 0 12.002c0 3.259.014 3.667.07 4.947.057 1.275.263 2.151.558 2.911a5.918 5.918 0 001.388 2.129c.6.61 1.328 1.083 2.125 1.383.764.295 1.636.501 2.912.558 1.28.056 1.688.07 4.947.07 3.26 0 3.667-.014 4.947-.07 1.276-.057 2.153-.263 2.912-.558a6.14 6.14 0 003.513-3.512c.295-.764.502-1.636.558-2.911.056-1.28.07-1.688.07-4.947 0-3.258-.005-3.666-.06-4.946zm-2.163 9.799c-.051 1.172-.248 1.805-.412 2.227a3.982 3.982 0 01-2.28 2.278c-.422.165-1.06.361-2.227.413-1.266.056-1.646.07-4.849.07-3.202 0-3.587-.014-4.848-.07-1.173-.052-1.806-.248-2.228-.413a3.694 3.694 0 01-1.378-.895 3.732 3.732 0 01-.896-1.378c-.164-.422-.361-1.06-.413-2.227-.056-1.266-.07-1.646-.07-4.848 0-3.203.014-3.587.07-4.848.052-1.172.249-1.805.413-2.227.192-.52.497-.994.9-1.379.39-.398.858-.703 1.379-.895.422-.164 1.06-.36 2.227-.413 1.266-.056 1.646-.07 4.85-.07 3.207 0 3.586.014 4.848.07 1.172.052 1.805.249 2.227.413.52.192.994.497 1.379.895.398.39.703.858.896 1.379.164.422.36 1.06.412 2.227.057 1.266.07 1.645.07 4.848 0 3.202-.013 3.577-.07 4.843z"/><path d="M12.005 5.837a6.167 6.167 0 00-6.167 6.165 6.167 6.167 0 0012.333 0 6.167 6.167 0 00-6.166-6.165zm0 10.165a4 4 0 110-8 4 4 0 010 8zm7.849-10.409a1.44 1.44 0 11-2.879 0 1.44 1.44 0 012.879 0z"/></g><defs><clipPath id="clip0_107_12"><path fill="#fff" d="M0 0h24v24H0z"/></clipPath></defs></svg>