<svg width="24" height="24" fill="none" xmlns="http://www.w3.org/2000/svg"><path d="M5.221 12.88c-.613 1.206.083 1.782 1.671 2.766 1.35.834 3.215 1.14 4.413 1.261l-4.72 4.54c-1.375 1.318.837 3.43 2.21 2.142l3.717-3.585c1.424 1.369 2.788 2.68 3.718 3.59 1.373 1.294 3.585-.801 2.226-2.141-.102-.097-5.037-4.831-4.736-4.54 1.213-.123 3.05-.446 4.384-1.262 1.587-.99 2.283-1.565 1.68-2.77-.366-.684-1.35-1.255-2.66-.267 0 0-1.77 1.355-4.622 1.355-2.853 0-4.622-1.355-4.622-1.355-1.309-.994-2.297-.417-2.658.267h-.001z" fill="#fff"/><path d="M12.499 12.142c3.478 0 6.318-2.718 6.318-6.064C18.817 2.73 15.977 0 12.499 0c-3.478 0-6.32 2.718-6.32 6.078 0 3.36 2.84 6.064 6.32 6.064zm0-9.063c1.709 0 3.103 1.341 3.103 3 0 1.657-1.394 2.984-3.103 2.984-1.71 0-3.103-1.34-3.103-2.985-.001-1.659 1.393-2.999 3.103-2.999z" fill="#fff"/></svg>