<svg width="24" height="24" fill="none" xmlns="http://www.w3.org/2000/svg"><g clip-path="url(#clip0_107_10)"><path fill-rule="evenodd" clip-rule="evenodd" d="M1.28 2.032C0 3.584 0 5.896 0 10.528v2.944c0 4.632 0 6.944 1.28 8.496.226.274.478.526.752.752C3.584 24 5.896 24 10.528 24h2.944c4.632 0 6.944 0 8.496-1.28.271-.227.52-.478.744-.752C24 20.416 24 18.104 24 13.472v-2.944c0-4.632 0-6.944-1.28-8.496a5.598 5.598 0 00-.752-.744C20.416 0 18.104 0 13.472 0h-2.944C5.896 0 3.584 0 2.032 1.28a5.6 5.6 0 00-.744.752H1.28zm2.832 6.32c.12 1.656.672 3.472 1.416 4.688 1.432 2.336 3.6 3.536 6.72 3.712l.552.048v-3.472l.384.04c1.52.2 3.032 1.416 3.68 2.96l.192.472h.464c.808.016 2.32.04 2.32 0a7.84 7.84 0 00-.616-1.504 7.352 7.352 0 00-3.248-3.208c-.104-.048-.192-.104-.192-.128a9.814 9.814 0 002.128-1.92 7.225 7.225 0 001.272-2.592l.048-.248h-2.52l-.192.48a6.12 6.12 0 01-2.6 2.984c-.352.16-.736.272-1.12.32V7.2h-2.4v6.672l-.288-.128a4.92 4.92 0 01-2.44-2.32 9.744 9.744 0 01-.896-3.544L6.72 7.2H4l.112 1.16v-.008z" fill="#fff"/></g><defs><clipPath id="clip0_107_10"><path fill="#fff" d="M0 0h24v24H0z"/></clipPath></defs></svg>