<svg width="90" height="90" fill="none" xmlns="http://www.w3.org/2000/svg"><path d="M82.5 82.5h-75a2.833 2.833 0 01-2.813-2.813A2.833 2.833 0 017.5 76.876h75a2.833 2.833 0 012.813 2.813A2.833 2.833 0 0182.5 82.5z" fill="#4542F6"/><path d="M36.563 15v67.5h16.874V15c0-4.125-1.687-7.5-6.75-7.5h-3.374c-5.063 0-6.75 3.375-6.75 7.5z" fill="#4542F6"/><path opacity=".4" d="M11.25 37.5v45h15v-45c0-4.125-1.5-7.5-6-7.5h-3c-4.5 0-6 3.375-6 7.5zm52.5 18.75V82.5h15V56.25c0-4.125-1.5-7.5-6-7.5h-3c-4.5 0-6 3.375-6 7.5z" fill="#4542F6"/></svg>