<svg width="90" height="90" fill="none" xmlns="http://www.w3.org/2000/svg"><path d="M75 25.313c5.695 0 10.313-4.618 10.313-10.313S80.695 4.687 75 4.687 64.687 9.306 64.687 15 69.305 25.313 75 25.313z" fill="#4542F6"/><path opacity=".4" d="M75 30c-8.287 0-15-6.712-15-15 0-2.738.788-5.287 2.1-7.5H26.25C15.9 7.5 7.5 15.863 7.5 26.175V52.35c0 10.313 8.4 18.675 18.75 18.675h5.625c1.013 0 2.362.675 3 1.5l5.625 7.462c2.475 3.3 6.525 3.3 9 0l5.625-7.462a3.801 3.801 0 013-1.5h5.625c10.35 0 18.75-8.363 18.75-18.675V27.9C80.287 29.213 77.737 30 75 30z" fill="#4542F6"/><path d="M45 45c-2.1 0-3.75-1.688-3.75-3.75A3.761 3.761 0 0145 37.5a3.761 3.761 0 013.75 3.75C48.75 43.313 47.1 45 45 45zm15 0c-2.1 0-3.75-1.688-3.75-3.75A3.761 3.761 0 0160 37.5a3.761 3.761 0 013.75 3.75C63.75 43.313 62.1 45 60 45zm-30 0c-2.1 0-3.75-1.688-3.75-3.75A3.761 3.761 0 0130 37.5a3.761 3.761 0 013.75 3.75C33.75 43.313 32.1 45 30 45z" fill="#4542F6"/></svg>