<svg width="90" height="90" fill="none" xmlns="http://www.w3.org/2000/svg"><path opacity=".4" d="M68.737 21.262L24.712 65.287c-1.65 1.65-4.425 1.425-5.775-.525-4.65-6.787-7.387-14.812-7.387-23.062V25.237c0-3.074 2.325-6.562 5.175-7.724l20.887-8.55a19.2 19.2 0 0114.7 0l15.15 6.187c2.513 1.013 3.15 4.237 1.275 6.112z" fill="#4542F6"/><path d="M72.263 26.4c2.437-2.062 6.15-.3 6.15 2.888V41.7c0 18.337-13.313 35.513-31.5 40.537a7.494 7.494 0 01-3.863 0c-5.325-1.5-10.275-4.012-14.512-7.312-1.8-1.387-1.988-4.012-.413-5.625 8.175-8.362 32.1-32.737 44.138-42.9z" fill="#4542F6"/></svg>